<svg xmlns="http://www.w3.org/2000/svg" xmlns:xlink="http://www.w3.org/1999/xlink" version="1.1" x="0px" y="0px" viewBox="0 0 100 125" enable-background="new 0 0 100 100" xml:space="preserve"><path d="M83.4522095,65.9685059c2.0182495-1.3375854,3.7965698-2.9024048,5.2796021-4.6444702l5.0909424,1.3483276  c0.1035156,0.0273438,0.2070313,0.0400391,0.3085938,0.0400391c0.53125,0,1.0166016-0.3554688,1.1591797-0.8925781  c0.1699219-0.640625-0.2119141-1.2978516-0.8525391-1.4677734l-4.1395264-1.0963135  c0.9262695-1.3894653,1.6700439-2.8687744,2.2184448-4.4144287h2.2277222c0.6630859,0,1.2001953-0.5371094,1.2001953-1.2001953  s-0.5371094-1.2001953-1.2001953-1.2001953h-1.5514526c0.2563477-1.2206421,0.3971558-2.4726563,0.3971558-3.7514648  c0-0.5265503-0.0280151-1.0498047-0.0725098-1.5706177l0.7160645-0.1896362  c0.640625-0.1699219,1.0224609-0.8266602,0.8525391-1.4672852c-0.1689453-0.6401367-0.8222656-1.0224609-1.4677734-0.8530273  l-0.4759521,0.1260376c-0.411499-1.8677979-1.1121216-3.677002-2.0942993-5.3959961l1.8192749-19.9517212  c0.0898438-0.9916992-0.3896484-1.9375-1.2529297-2.46875c-0.9052734-0.5576172-2.0283203-0.5688477-2.9570313-0.0400391  L75.9891968,22.47229c-3.0546875-1.2485962-6.4484863-1.9532471-9.9945679-1.9532471  c-3.5458984,0-6.9396362,0.7046509-9.9943237,1.953125l-12.6697388-5.5942383  c-0.9179688-0.5200195-2.0644531-0.5073242-2.9550781,0.0400391c-0.862793,0.53125-1.3432617,1.4775391-1.2524414,2.4692383  l1.8178101,19.9517212c-1.2462158,2.1814575-2.0392456,4.5084229-2.3609009,6.9145508l-6.2093506-1.6445923  c-0.6381836-0.171875-1.2973633,0.2124023-1.4672852,0.8530273c-0.1694336,0.640625,0.2124023,1.2973633,0.8530273,1.4672852  l6.6426392,1.7592163c0,0.0003662-0.000061,0.0006714-0.000061,0.0010376c0,1.2788086,0.1408081,2.5308228,0.3971558,3.7514648  h-7.5514526c-0.6625977,0-1.2001953,0.5371094-1.2001953,1.2001953s0.5375977,1.2001953,1.2001953,1.2001953h8.2277222  c0.3721924,1.0490112,0.8364868,2.06604,1.3863525,3.0460205l-9.3069458,2.4647217  c-0.640625,0.1699219-1.0224609,0.8271484-0.8530273,1.4677734c0.1425781,0.5371094,0.6279297,0.8925781,1.1591797,0.8925781  c0.1020508,0,0.2050781-0.0126953,0.3081055-0.0400391l10.055603-2.6629639  c1.6606445,2.2748413,3.8018799,4.2932739,6.3154297,5.9591064C40.236084,72.3773804,34.769043,83.2180176,34.769043,95.487793  c0,0.828125,0.6713867,1.5,1.5,1.5c0.8285522,0,1.4998779-0.671814,1.5-1.4998779c0-0.000061,0-0.000061,0-0.0001221  c0-11.7974854,5.4476929-22.1523438,13.5884399-27.8817139c4.2460938,2.1589355,9.2626343,3.4129639,14.637146,3.4129639  s10.3910522-1.2540283,14.637146-3.4129639c8.1407471,5.7293701,13.5884399,16.0842285,13.5884399,27.8817139  c0,0.000061,0,0.000061,0,0.0001221c0.0001221,0.828064,0.671936,1.4998779,1.5,1.4998779c0.828125,0,1.5-0.671875,1.5-1.5  C97.2202148,83.2180176,91.7531738,72.3773804,83.4522095,65.9685059z M65.9946289,68.019043  c-4.1783447,0-8.1148071-0.8253784-11.5643921-2.2759399c-0.5818481-0.2446899-1.1474609-0.5093994-1.7003174-0.7888184  c-0.5205078-0.2631226-1.0302734-0.5379639-1.5229492-0.8302002c-2.2998047-1.3643188-4.2823486-3.039917-5.8543701-4.9438477  l4.4955444-1.1904907c0.640625-0.1699219,1.0224609-0.8271484,0.8525391-1.4677734s-0.828125-1.0224609-1.4672852-0.8525391  l-5.3839722,1.4258423c-0.4483032-0.7265625-0.8346558-1.4804077-1.1660156-2.2539673h7.0612183  c0.6630859,0,1.2001953-0.5371094,1.2001953-1.2001953s-0.5371094-1.2001953-1.2001953-1.2001953h-7.8768921  c-0.241333-0.9603271-0.390564-1.9459839-0.4429932-2.9511719L49.4375,51.6118164  c0.1030273,0.0273438,0.206543,0.0410156,0.3081055,0.0410156c0.53125,0,1.0166016-0.3554688,1.1591797-0.8935547  c0.1699219-0.640625-0.2119141-1.2973633-0.8525391-1.4672852l-8.5547485-2.2658081  c0.0524902-0.4804077,0.1268921-0.9575806,0.2244263-1.4310303c0.22052-1.0704346,0.5632935-2.1185303,1.0090332-3.1407471  c0.4171143-0.9567261,0.9321899-1.8869019,1.5405884-2.7863159c0.4522095-0.668457,0.9404907-1.3245239,1.4955444-1.9542236  l0.2451172-0.277832l0.0869141-0.3603516c1.1905518-4.9087524,4.9044189-8.9762573,9.8712158-11.3370972  c0.6195068-0.2944946,1.2644043-0.5523071,1.9203491-0.7919922c0.7103882-0.2595825,1.4414063-0.4821777,2.1885986-0.6734009  c1.883728-0.4820557,3.8677368-0.7541504,5.9153442-0.7541504c2.0477905,0,4.0319214,0.2720947,5.9157715,0.7542725  c0.7470703,0.1912231,1.4780884,0.4138794,2.1883545,0.6734009c0.6560059,0.2397461,1.3008423,0.4976807,1.9203491,0.7921753  c4.9661865,2.3609009,8.6795044,6.4282227,9.8700562,11.336792l0.0878906,0.3603516l0.2451172,0.277832  c0.5549316,0.6296997,1.0431519,1.2857056,1.4953003,1.9541016c0.6087036,0.8998413,1.1239014,1.8305054,1.5411987,2.7877197  c0.4324951,0.9921265,0.765564,2.0090942,0.9860229,3.046814l-0.069458,0.0184326l-14.2382202,3.7710571  c-0.640625,0.1699219-1.0224609,0.8266602-0.8525391,1.4672852c0.1425781,0.5380859,0.6279297,0.8935547,1.1591797,0.8935547  c0.1015625,0,0.2050781-0.0136719,0.3085938-0.0410156l14.0004272-3.7077026  c0.0134277,0.2617188,0.0376587,0.5222168,0.0376587,0.7853394c0,1.2835083-0.1636963,2.5372314-0.468811,3.7514648H76.2446289  c-0.6630859,0-1.2001953,0.5371094-1.2001953,1.2001953s0.5371094,1.2001953,1.2001953,1.2001953h13.0612183  c-0.5409546,1.2626953-1.2421875,2.4671631-2.0870972,3.5987549l-10.4614258-2.7706299  c-0.6435547-0.1679688-1.2978516,0.2128906-1.4677734,0.8525391c-0.1699219,0.640625,0.2119141,1.2978516,0.8525391,1.4677734  l9.3397217,2.4735718c-1.3517456,1.3786011-2.9315186,2.6119385-4.6995239,3.6607666  c-0.4926147,0.2922363-1.0022583,0.5670166-1.522644,0.8300781c-0.5529175,0.27948-1.1187134,0.5442505-1.7006226,0.7889404  C74.109436,67.1936646,70.1729736,68.019043,65.9946289,68.019043z M43.5665894,35.0967407l-1.4083862-15.4570923  l10.3729858,4.5803223C48.2583618,26.8143921,45.0252686,30.6119385,43.5665894,35.0967407z M88.4229736,35.0991821  c-1.458313-4.4857178-4.6914673-8.2840576-8.9647217-10.8789063l10.373291-4.5806274L88.4229736,35.0991821z M68.4418945,58.0083008  c-0.2070313,0.4277344-0.6357422,0.6767578-1.0810547,0.6767578c-0.1757813,0-0.3535156-0.0390625-0.5224609-0.1201172  l-3.84375-1.8632813l-3.84375,1.8632813c-0.5966797,0.2880859-1.3144531,0.0410156-1.6035156-0.5566406  c-0.2890625-0.5966797-0.0400391-1.3144531,0.5566406-1.6035156l3.6904297-1.788269v-3.052063  c-0.166687-0.1263428-0.322937-0.2714233-0.4500732-0.4572144l-1.5114746-2.2086792  c-0.9083862-1.3273315,0.0420532-3.1295166,1.6505127-3.1295166h3.0229492c1.6083984,0,2.5588989,1.8021851,1.6505127,3.1295166  l-1.5114746,2.2086792c-0.1272583,0.1859741-0.2836914,0.3311157-0.4505615,0.4574585v3.0518188l3.6904297,1.788269  C68.4819336,56.6938477,68.730957,57.4116211,68.4418945,58.0083008z M74.932373,38.8842773  c0,1.3461914-1.0913086,2.4375-2.4375,2.4375s-2.4375-1.0913086-2.4375-2.4375s1.0913086-2.4375,2.4375-2.4375  S74.932373,37.5380859,74.932373,38.8842773z M55.932373,38.8842773c0,1.3461914-1.0913086,2.4375-2.4375,2.4375  s-2.4375-1.0913086-2.4375-2.4375c0-0.3795166,0.0941772-0.7341919,0.2489014-1.0544434  c0.3129272-0.6478882,0.8995361-1.1341553,1.6138916-1.3076782c0.1851196-0.0449829,0.3757324-0.0753784,0.574707-0.0753784  C54.8410645,36.4467773,55.932373,37.5380859,55.932373,38.8842773z M25.5893555,47.081543  c0-9.1152954-4.2452393-16.3964844-9.9047852-17.5038452V4.512207c0-0.8286133-0.6713867-1.5-1.5-1.5s-1.5,0.6713867-1.5,1.5  v25.0656738c-5.6594849,1.1079712-9.9047852,8.388855-9.9047852,17.5036621c0,5.9599609,1.890625,11.4628906,5.0585938,14.7197266  c0.2104492,0.2158203,0.2539063,0.5380859,0.1088867,0.8017578l-2.6298828,4.7802734  c-0.6376953,1.1582031-0.6166992,2.5292969,0.0561523,3.6679688c0.6733398,1.1386719,1.8647461,1.8183594,3.1870117,1.8183594  H19.809082c1.3227539,0,2.5141602-0.6796875,3.1870117-1.8183594c0.6728516-1.1376953,0.6938477-2.5097656,0.0566406-3.6679688  l-2.6298828-4.7802734c-0.1455078-0.2636719-0.1015625-0.5859375,0.1088867-0.8027344  C23.6987305,58.543457,25.5893555,53.0415039,25.5893555,47.081543z M20.4135742,69.5249023  c-0.0761719,0.1289063-0.2558594,0.3447266-0.6044922,0.3447266H8.5605469c-0.3486328,0-0.5283203-0.2158203-0.6044922-0.3447266  c-0.0756836-0.1289063-0.1787109-0.390625-0.0107422-0.6962891l2.6298828-4.7783203  c0.7866211-1.4287109,0.550293-3.1738281-0.5869141-4.3417969c-2.5957031-2.6689453-4.2084961-7.5068359-4.2084961-12.6269531  c0-0.3547363,0.0165405-0.7036743,0.0316162-1.0530396c2.052124,0.5620728,5.7255859,1.3845825,9.6617432,1.3845825  c2.3703613,0,4.8323975-0.3056641,7.0919189-1.1397095c0.0089111,0.269165,0.024292,0.5358887,0.024292,0.8081665  c0,5.1191406-1.6123047,9.9580078-4.2080078,12.6269531c-1.137207,1.1689453-1.3730469,2.9140625-0.5869141,4.3408203  l2.6298828,4.7792969C20.5922852,69.1342773,20.4897461,69.3959961,20.4135742,69.5249023z M12.6845703,32.6727295  c0.4887085-0.1613159,0.9888916-0.2575684,1.4998169-0.2576294c0.0002441,0,0.0004272-0.000061,0.0006714-0.000061  c0.5108643,0,1.0108643,0.0962524,1.4995117,0.2574463c3.1277466,1.0316772,5.7037354,5.2000732,6.5783081,10.491272  c-0.9776001,0.4401855-2.0283813,0.7429199-3.1118774,0.9400635c-2.6029053,0.4735718-5.3884277,0.3358154-7.7890625,0  c-2.2362061-0.3128662-4.1323853-0.7930298-5.2304077-1.1067505C7.0320435,37.7846069,9.5894775,33.6940918,12.6845703,32.6727295z   M11.7666016,37.40625l0.7203369-0.7202148l-0.7203369-0.7202148c-0.4682617-0.46875-0.46875-1.2285156,0-1.6972656  c0.2600098-0.2600098,0.6077271-0.3607788,0.9475098-0.3323364c0.2727051,0.0228271,0.5410156,0.1235962,0.7497559,0.3323364  l0.720459,0.7203369l0.720459-0.7203369c0.2088623-0.2088623,0.477356-0.3096924,0.7502441-0.3323975  c0.3396606-0.0283203,0.6871338,0.0725098,0.9470215,0.3323975c0.46875,0.46875,0.4682617,1.2285156,0,1.6972656  l-0.7203369,0.7202148l0.7203369,0.7202148c0.4682617,0.46875,0.46875,1.2285156,0,1.6972656  c-0.234375,0.234375-0.5415039,0.3515625-0.8486328,0.3515625s-0.6142578-0.1171875-0.8486328-0.3515625l-0.720459-0.7203369  l-0.720459,0.7203369c-0.234375,0.234375-0.5415039,0.3515625-0.8486328,0.3515625s-0.6142578-0.1171875-0.8486328-0.3515625  C11.2978516,38.6347656,11.2983398,37.875,11.7666016,37.40625z"/><text x="0" y="115" fill="#000000" font-size="5px" font-weight="bold" font-family="'Helvetica Neue', Helvetica, Arial-Unicode, Arial, Sans-serif">Created by Llisole</text><text x="0" y="120" fill="#000000" font-size="5px" font-weight="bold" font-family="'Helvetica Neue', Helvetica, Arial-Unicode, Arial, Sans-serif">from the Noun Project</text></svg>