<svg xmlns="http://www.w3.org/2000/svg" xmlns:xlink="http://www.w3.org/1999/xlink" version="1.1" x="0px" y="0px" viewBox="0 0 100 125" enable-background="new 0 0 100 100" xml:space="preserve"><path d="M66.890625,28.4450684c-4.0996094-2.6860352-9.9316406-4.1049805-16.8901367-4.1049805  s-12.7905273,1.4189453-16.890625,4.1049805c-4.9389648,1.2504883-15.6772461,4.9077148-15.1264648,12.9501953  c0.1245117,1.8085938,0.206543,3.8051758,0.2431641,5.9345703c0.0488281,2.7509766,1.6274414,5.0576172,3.9282227,5.7397461  c2.0366211,0.6020508,4.1044922-0.2119141,5.3989258-2.1279297l0.6030273-0.8920898  c0.4267578,0.9052734,0.9213867,1.7827148,1.480957,2.6269531c-0.0058594,0.1147461-0.0102539,0.2299805-0.0102539,0.3461914  c0,5.3383789,1.9240112,10.2079468,5.0698242,13.9373169c-9.4946289,6.1170044-15.9228516,17.730835-15.9228516,31.0314331  c0,0.828125,0.6713867,1.5,1.5,1.5c0.8285522,0,1.4998779-0.6716919,1.5-1.4997559c0-0.000061,0-0.0001831,0-0.0002441  c0-12.4907837,6.1096191-23.3590088,15.053894-28.8377686c3.5553589,3.1434326,8.1504517,5.0516357,13.1721802,5.0516357  c5.0217896,0,9.6168213-1.9082031,13.1720581-5.0516968c8.944397,5.4787598,15.0540161,16.3469849,15.0540161,28.8378296  c0,0.000061,0,0.0001831,0,0.0002441c0.0001221,0.828064,0.671936,1.4997559,1.5,1.4997559c0.828125,0,1.5-0.671875,1.5-1.5  c0-13.3006592-6.4283447-24.9145508-15.9230347-31.0315552c3.1456299-3.7293091,5.069519-8.598877,5.069519-13.9371948  c0-0.1166992-0.0039063-0.2319336-0.0097656-0.3466797c0.5585938-0.8442383,1.0527344-1.722168,1.4794922-2.6274414  l0.6035156,0.8925781c1.2958984,1.9174805,3.3671875,2.7314453,5.4003906,2.1279297  c2.2998047-0.6826172,3.8779297-2.9887695,3.9257813-5.7382813c0.0390625-2.1523438,0.1220703-4.1494141,0.2441406-5.9360352  C82.5673828,33.3527832,71.8291016,29.6955566,66.890625,28.4450684z M79.0244141,41.189209  c-0.1269531,1.8359375-0.2109375,3.8837891-0.2519531,6.0883789c-0.0283203,1.6577148-0.9140625,2.6586914-1.7792969,2.9155273  c-0.7744141,0.2265625-1.5009766-0.1030273-2.0615234-0.9326172l-3.9736328-5.8735352l-0.9150391,3.0107422  c-0.5371094,1.769043-1.3564453,3.4501953-2.4355469,4.996582l-0.2871094,0.409668l0.0175781,0.5  c0.0039063,0.1191406,0.0117188,0.2373047,0.0185547,0.3554688c0.0078125,0.1201172,0.0166016,0.2407227,0.0166016,0.3632813  c0,4.8026123-1.8010254,9.1635132-4.7169189,12.4171143c-0.34729,0.3874512-0.7106934,0.7567749-1.0888062,1.1113281  c-0.4056396,0.3803101-0.8274536,0.7396851-1.2659912,1.0793457c-2.8862305,2.2354736-6.4425049,3.5748291-10.3008423,3.5748291  c-3.8582764,0-7.4146118-1.3392944-10.3009644-3.5747681c-0.4385376-0.3396606-0.8604126-0.6990967-1.2661133-1.0794678  c-0.3781128-0.3544922-0.7415161-0.7237549-1.0887451-1.1112061c-2.9160767-3.2536011-4.7172241-7.614502-4.7172241-12.4171753  c0-0.1225586,0.0087891-0.2431641,0.0166016-0.3632813c0.0073242-0.1181641,0.0146484-0.2363281,0.0185547-0.3554688  l0.0170898-0.5004883l-0.2866211-0.4101563c-1.0805664-1.5458984-1.9003906-3.2265625-2.4370117-4.9951172l-0.9145508-3.0131836  l-3.9731445,5.8764648c-0.5600586,0.8286133-1.293457,1.1601563-2.0605469,0.9316406  c-0.8657227-0.2563477-1.7519531-1.2578125-1.78125-2.9155273c-0.0380859-2.1801758-0.1220703-4.2285156-0.25-6.0878906  c-0.4052734-5.9145508,9.0317383-8.890625,13.1074219-9.8955078l0.2602539-0.0644531l0.222168-0.1503906  c3.6118164-2.4462891,8.9487305-3.7392578,15.434082-3.7392578c6.4848633,0,11.8217773,1.2929688,15.434082,3.7392578  l0.2216797,0.1503906l0.2597656,0.0644531C69.9921875,32.2990723,79.4287109,35.2746582,79.0244141,41.189209z   M41.5921021,40.2877808c-1.5117798,0-2.7373657-1.2255249-2.7373657-2.7373657  c0-1.5117798,1.2255859-2.7373657,2.7373657-2.7373657c1.5118408,0,2.7373657,1.2255859,2.7373657,2.7373657  C44.3294678,39.0622559,43.1039429,40.2877808,41.5921021,40.2877808z M61.145813,37.550415  c0,1.5118408-1.2255249,2.7373657-2.7373657,2.7373657c-1.5117798,0-2.7373657-1.2255249-2.7373657-2.7373657  c0-1.5117798,1.2255859-2.7373657,2.7373657-2.7373657C59.9202881,34.8130493,61.145813,36.0386353,61.145813,37.550415z   M57.3085938,59.3400879c0.3828125,0.5400391,0.2548828,1.2890625-0.2861328,1.6728516  c-1.3330078,0.9443359-2.5673828,1.4179688-3.6884766,1.4179688c-0.5478516,0-1.0683594-0.1132813-1.5600586-0.3388672  c-0.7658081-0.3521118-1.3391724-0.9359741-1.7736206-1.5924683c-0.4345093,0.6564941-1.0079346,1.2403564-1.7737427,1.5924683  c-0.4916992,0.2255859-1.0126953,0.3388672-1.5600586,0.3388672c-1.121582,0-2.355957-0.4736328-3.6894531-1.4179688  c-0.5405273-0.3837891-0.668457-1.1318359-0.2851563-1.6728516c0.3833008-0.5400391,1.1313477-0.6669922,1.6728516-0.2861328  c0.8476563,0.5996094,2.0297852,1.234375,2.8598633,0.8574219c0.4307861-0.1980591,0.769104-0.6585083,1.0300903-1.194519  c-2.5737305-0.460083-4.454834-1.9083862-4.454834-3.62677c0-2.0884399,2.776062-3.7814331,6.2004395-3.7814331  s6.2003784,1.6929932,6.2003784,3.7814331c0,1.7195435-1.8837891,3.1685181-4.460144,3.6276245  c0.2560425,0.5310059,0.5948486,0.9923706,1.0377808,1.1946411c0.8222656,0.3779297,2.0097656-0.2578125,2.8574219-0.8583984  C56.1738281,58.6721191,56.9238281,58.7990723,57.3085938,59.3400879z M42.2207031,20.3103638  c2.0437012,1.9024048,4.7740479,3.0765991,7.7797852,3.0765991c3.0055542,0,5.7358398-1.1741943,7.7794189-3.0766602  c0.8143311-0.7580566,1.5167847-1.6308594,2.083252-2.5959473c0.9953003-1.6955566,1.5762939-3.6621704,1.5762939-5.7663574  c0-2.1043091-0.5811157-4.071167-1.5765381-5.7668457c-0.5665283-0.9650879-1.2688599-1.8377686-2.0831909-2.5958252  c-2.0435791-1.9024658-4.7738037-3.0767822-7.7792358-3.0767822c-3.0056763,0-5.7359619,1.1742554-7.7796021,3.0767212  c-0.8143921,0.7580566-1.5167847,1.6307983-2.083313,2.5958862c-0.9954224,1.6956787-1.5765381,3.6625366-1.5765381,5.7668457  c0,2.104187,0.5809937,4.0708008,1.5762939,5.7663574C40.7038574,18.6794434,41.406311,19.5522461,42.2207031,20.3103638z   M57.1932983,7.5569458c0.7851563,1.28125,1.2461548,2.7815552,1.2461548,4.3910522  c0,1.609436-0.4610596,3.1096191-1.2460938,4.3907471c-0.930542-1.0601196-1.5234375-2.633667-1.5234375-4.3907471  C55.6699219,10.1907349,56.2627563,8.6171265,57.1932983,7.5569458z M44.7922974,5.3207397  c1.4361572-1.1311035,3.2426147-1.8121948,5.2081909-1.8121948c1.9654541,0,3.7718506,0.6811523,5.2079468,1.8123169  c-1.5513916,1.6104126-2.5385132,3.9811401-2.5385132,6.6271362s0.9871216,5.0166016,2.5385132,6.6268311  c-1.4360962,1.1310425-3.2424927,1.8121338-5.2079468,1.8121338c-1.9655762,0-3.7720337-0.6810303-5.2081909-1.8120117  c1.5515747-1.6102295,2.5387573-3.980896,2.5387573-6.6269531S46.3438721,6.9311523,44.7922974,5.3207397z M42.807373,7.5567017  c0.9307251,1.0601807,1.5236816,2.6339111,1.5236816,4.3912964c0,1.7572021-0.5929565,3.3308716-1.5237427,4.3909912  c-0.7851563-1.281189-1.2462769-2.7814331-1.2462769-4.3909912C41.5610352,10.3383789,42.0221558,8.8379517,42.807373,7.5567017z   M63.617981,6.9694214c-0.3662109-0.7416992-0.0644531-1.6396484,0.6777344-2.0073242  c0.3037109-0.1503906,7.5332031-3.6655273,16.1738281-2.2919922c0.8183594,0.1303711,1.3759766,0.8989258,1.2460938,1.7167969  c-0.1298828,0.8183594-0.9052734,1.3759766-1.7167969,1.2460938c-7.671875-1.2182617-14.3066406,1.9848633-14.3730469,2.0175781  c-0.2128906,0.1049805-0.4384766,0.1547852-0.6611328,0.1547852C64.4109497,7.8053589,63.8796997,7.4987183,63.617981,6.9694214z   M75.31427,8.5543823c0.8115234,0.1660156,1.3349609,0.9589844,1.1689453,1.7705078  c-0.1660156,0.8120117-0.9667969,1.3334961-1.7705078,1.1679688c-4.1181641-0.8427734-7.5683594,1.0556641-7.6025391,1.0751953  c-0.2324219,0.1298828-0.4833984,0.1918945-0.7324219,0.1918945c-0.5244141,0-1.0341797-0.2763672-1.3095703-0.7670898  c-0.4052734-0.7231445-0.1474609-1.637207,0.5751953-2.0419922C65.8240356,9.8497925,70.1257935,7.4894409,75.31427,8.5543823z"/><text x="0" y="115" fill="#000000" font-size="5px" font-weight="bold" font-family="'Helvetica Neue', Helvetica, Arial-Unicode, Arial, Sans-serif">Created by Llisole</text><text x="0" y="120" fill="#000000" font-size="5px" font-weight="bold" font-family="'Helvetica Neue', Helvetica, Arial-Unicode, Arial, Sans-serif">from the Noun Project</text></svg>