<svg xmlns="http://www.w3.org/2000/svg" xmlns:xlink="http://www.w3.org/1999/xlink" version="1.1" x="0px" y="0px" viewBox="0 0 100 125" enable-background="new 0 0 100 100" xml:space="preserve"><path d="M81.7502441,48.1016083c0.6630859,0,1.2001953-0.5375977,1.2001953-1.2001953s-0.5371094-1.2001953-1.2001953-1.2001953  h-4.5513916c0.2563477-1.220459,0.3970947-2.4723511,0.3970947-3.7509766c0-0.2635498-0.0251465-0.5239868-0.0363159-0.7861938  l3.678894-0.9745483c0.640625-0.1699219,1.0224609-0.8266602,0.8525391-1.4672852  c-0.1699219-0.6401367-0.8212891-1.0209961-1.4677734-0.8530273l-3.3154907,0.8782959  c-0.3775635-2.1342773-1.1400146-4.1973877-2.253479-6.1465454l1.8179932-19.9534302  c0.0898438-0.9916992-0.3896484-1.9375-1.2529297-2.46875c-0.8916016-0.5488281-2.0380859-0.5595703-2.9560547-0.0400391  l-12.6692505,5.5939331c-3.0548706-1.2485962-6.4487305-1.9533081-9.994812-1.9533081  c-3.5460205,0-6.9396973,0.7046509-9.9943237,1.9532471l-12.6677856-5.5933838  c-0.9287109-0.527832-2.0507813-0.5175781-2.956543,0.0395508c-0.862793,0.5307617-1.3432617,1.4765625-1.2529297,2.46875  l1.8182373,19.9523315c-1.1137085,1.9494629-1.8761597,4.0130005-2.2537842,6.1478271l-3.3164063-0.878479  c-0.6386719-0.1689453-1.2973633,0.2119141-1.4672852,0.8530273c-0.1694336,0.640625,0.2124023,1.2973633,0.8530273,1.4672852  l3.678894,0.9744873c-0.0111694,0.262207-0.0363159,0.5227051-0.0363159,0.7862549  c0,1.2786255,0.1407471,2.5305176,0.3970947,3.7509766h-4.5513916c-0.6625977,0-1.2001953,0.5375977-1.2001953,1.2001953  s0.5375977,1.2001953,1.2001953,1.2001953h5.2277222c0.460022,1.2965088,1.0586548,2.5454102,1.7873535,3.7342529  l-6.7079468,1.7764893c-0.640625,0.1699219-1.0224609,0.8271484-0.8530273,1.4677734  c0.1425781,0.5371094,0.6279297,0.8925781,1.1591797,0.8925781c0.1020508,0,0.2050781-0.0126953,0.3081055-0.0400391  l7.5593872-2.0020142c1.5825195,2.0053101,3.5447388,3.7957764,5.8117676,5.2982178  c-8.3010864,6.4088135-13.7681274,17.2494507-13.7681274,29.5192261c0,0.828125,0.6713867,1.5,1.5,1.5  c0.8284912,0,1.4996948-0.6716309,1.499939-1.4996338c0-0.0001221,0.000061-0.0002441,0.000061-0.0003662  c0-11.7974854,5.4476929-22.1522827,13.588501-27.8816528c4.2460327,2.1588745,9.2624512,3.4129028,14.6365967,3.4129028  c5.3746948,0,10.3915405-1.2540894,14.6378784-3.413147c8.1408691,5.7293091,13.5886841,16.0842896,13.5886841,27.881897  c0,0.0001221,0.000061,0.0002441,0.000061,0.0003662c0.0002441,0.8280029,0.671936,1.4996338,1.499939,1.4996338  c0.828125,0,1.5-0.671875,1.5-1.5c0-12.2698975-5.4671021-23.1106567-13.7682495-29.5194702  c2.2669678-1.5023804,4.229126-3.2926636,5.8116455-5.2978516l7.5591431,2.0018921  c0.1035156,0.0273438,0.2070313,0.0400391,0.3085938,0.0400391c0.53125,0,1.0166016-0.3554688,1.1591797-0.8925781  c0.1699219-0.640625-0.2119141-1.2978516-0.8525391-1.4677734l-6.7084961-1.7766113  c0.7286987-1.1888428,1.3273926-2.4376831,1.7873535-3.7341309H81.7502441z M63.2502441,48.1016083h10.0612183  c-0.43573,1.0169678-0.9727173,1.9973755-1.6081543,2.9312134l-7.9413452-2.1030884  c-0.6425781-0.1694336-1.2978516,0.2128906-1.4677734,0.8530273c-0.1699219,0.640625,0.2119141,1.2973633,0.8525391,1.4672852  l6.9371948,1.8371582c-1.4746094,1.6374512-3.2606201,3.0894775-5.2962646,4.2969971  c-0.4927979,0.2923584-1.0027466,0.5671997-1.5233154,0.8303223c-0.5527954,0.2793579-1.1182861,0.5440674-1.7000122,0.7886963  c-3.4497681,1.4506836-7.3865356,2.276123-11.5650635,2.276123c-4.1781006,0-8.1143799-0.8253784-11.5638428-2.2758789  c-0.5817871-0.2446289-1.147522-0.5093384-1.7003174-0.7887573c-0.5205078-0.2631226-1.0303345-0.5379639-1.5230713-0.8302612  c-2.0357056-1.2075806-3.8217773-2.659729-5.2964478-4.2973022l6.9367065-1.8370972  c0.640625-0.1699219,1.0224609-0.8266602,0.8530273-1.4672852c-0.1699219-0.640625-0.828125-1.0214844-1.4672852-0.8530273  l-7.9415283,2.1032104c-0.635376-0.9338989-1.1723022-1.9143066-1.6080322-2.9313354h10.0612793  c0.6625977,0,1.2001953-0.5375977,1.2001953-1.2001953s-0.5375977-1.2001953-1.2001953-1.2001953H25.8728027  c-0.3050537-1.2140503-0.46875-2.4675903-0.46875-3.7509766c0-0.0003662,0.000061-0.0007935,0.000061-0.0011597  l11.0385132,2.9240112c0.1030273,0.0273438,0.2060547,0.0400391,0.3081055,0.0400391  c0.5307617,0,1.0166016-0.3554688,1.1591797-0.8930664c0.1694336-0.640625-0.2124023-1.2973633-0.8530273-1.4672852  l-11.4433594-3.03125c0.0357666-0.2225342,0.0681763-0.4453125,0.1137085-0.6661987  c0.220459-1.0701294,0.5631714-2.117981,1.0087891-3.1399536c0.4171143-0.9567871,0.9321289-1.8870239,1.5406494-2.786499  c0.4522095-0.668457,0.9404907-1.3245239,1.4955444-1.9542236l0.2451172-0.277832l0.0869141-0.3603516  c1.1905518-4.9087524,4.90448-8.9764404,9.8712158-11.3374634c0.6193848-0.2944336,1.2641602-0.5522461,1.9200439-0.7919312  c0.7102661-0.2595215,1.4412231-0.4822388,2.1882935-0.6734619c1.8837891-0.4821777,3.8678589-0.7542725,5.9154663-0.7542725  c2.0478516,0,4.0320435,0.2721558,5.9159546,0.7543335c0.7471924,0.1912842,1.4783325,0.4139404,2.1887817,0.6735229  c0.6558838,0.2396851,1.3006592,0.4974976,1.9200439,0.7919922c4.9664917,2.3609009,8.6801758,6.4282227,9.8707275,11.336792  l0.0878906,0.3603516l0.2451172,0.277832c0.5548706,0.6297607,1.0430298,1.2858276,1.4951172,1.9542847  c0.6085815,0.8996582,1.1235962,1.8301392,1.5408325,2.7871094c0.4455566,1.0217896,0.788269,2.0693359,1.0087891,3.1391602  c0.0455933,0.2210693,0.078125,0.4439697,0.1138916,0.666626L62.942627,42.5527802  c-0.640625,0.1699219-1.0224609,0.8266602-0.8525391,1.4672852c0.1425781,0.5375977,0.6279297,0.8930664,1.1591797,0.8930664  c0.1015625,0,0.2050781-0.0126953,0.3085938-0.0400391l11.0380249-2.9239502c0,0.0003662,0.000061,0.0007324,0.000061,0.0010986  c0,1.2833862-0.1636963,2.5369263-0.468811,3.7509766H63.2502441c-0.6630859,0-1.2001953,0.5375977-1.2001953,1.2001953  S62.5871582,48.1016083,63.2502441,48.1016083z M27.5715942,28.3578949l-1.4087524-15.4574585l10.3731689,4.5800171  C32.2634277,20.0749969,29.0304565,23.8727264,27.5715942,28.3578949z M72.4277954,28.3574066  c-1.4587402-4.4848633-4.6917725-8.2824097-8.9644775-10.8768311l10.3728638-4.5801392L72.4277954,28.3574066z   M55.4475098,51.2686005c-0.2900391,0.5966797-1.0078125,0.8466797-1.6035156,0.5566406l-3.84375-1.862793l-3.8442383,1.862793  c-0.168457,0.0820313-0.347168,0.1210938-0.5224609,0.1210938c-0.4458008,0-0.8735352-0.25-1.0810547-0.6777344  c-0.2890625-0.5961914-0.0395508-1.3139648,0.5566406-1.6030273l3.690918-1.7886963v-3.0515747  c-0.1669312-0.1264038-0.3233643-0.2715454-0.4506836-0.4575806l-1.5114746-2.2086182  c-0.9083862-1.3273926,0.0420532-3.1295166,1.6505127-3.1295166h3.0229492c1.6083984,0,2.5588989,1.802124,1.6505127,3.1295166  l-1.5114746,2.2086182c-0.1271362,0.18573-0.2833252,0.3308105-0.4499512,0.4570923v3.052063l3.6904297,1.7886963  C55.4875488,49.9546356,55.7365723,50.6728973,55.4475098,51.2686005z M61.9373779,32.1448212  c0,1.3461914-1.0913086,2.4375-2.4375,2.4375s-2.4375-1.0913086-2.4375-2.4375s1.0913086-2.4375,2.4375-2.4375  S61.9373779,30.7986298,61.9373779,32.1448212z M42.9373779,32.1448212c0,1.3461914-1.0913086,2.4375-2.4375,2.4375  s-2.4375-1.0913086-2.4375-2.4375s1.0913086-2.4375,2.4375-2.4375S42.9373779,30.7986298,42.9373779,32.1448212z"/><text x="0" y="115" fill="#000000" font-size="5px" font-weight="bold" font-family="'Helvetica Neue', Helvetica, Arial-Unicode, Arial, Sans-serif">Created by Llisole</text><text x="0" y="120" fill="#000000" font-size="5px" font-weight="bold" font-family="'Helvetica Neue', Helvetica, Arial-Unicode, Arial, Sans-serif">from the Noun Project</text></svg>