<svg xmlns="http://www.w3.org/2000/svg" xmlns:xlink="http://www.w3.org/1999/xlink" version="1.1" x="0px" y="0px" viewBox="0 0 100 125" enable-background="new 0 0 100 100" xml:space="preserve"><path d="M25.2210617,35.7962646c-1.5117798,0-2.7373657-1.2255859-2.7373657-2.7373657s1.2255859-2.7373657,2.7373657-2.7373657  c1.5118408,0,2.7373657,1.2255859,2.7373657,2.7373657S26.7329025,35.7962646,25.2210617,35.7962646z M42.0374069,30.3215332  c-1.5117798,0-2.7373657,1.2255859-2.7373657,2.7373657s1.2255859,2.7373657,2.7373657,2.7373657  c1.5118408,0,2.7373657-1.2255859,2.7373657-2.7373657S43.5492477,30.3215332,42.0374069,30.3215332z M39.265007,53.5622559  c-0.1591187,0.112793-0.3325195,0.2249756-0.5108032,0.333374c-0.770813,0.4686279-1.6752319,0.8327637-2.3466187,0.5250244  c-0.3764648-0.1721802-0.6729736-0.5376587-0.9125977-0.96698c-0.0423584-0.0758667-0.086853-0.1478882-0.1253052-0.2275391  c1.0324707-0.18396,1.9532471-0.526001,2.6862793-0.9821777c1.0959473-0.6820679,1.7736816-1.6150513,1.7736816-2.6454468  c0-2.0883789-2.776001-3.7813721-6.2003784-3.7813721s-6.2004395,1.6929932-6.2004395,3.7813721  c0,1.0303955,0.6777344,1.9633789,1.7737427,2.6454468c0.7330322,0.4561768,1.6538696,0.7982178,2.6864624,0.9822388  c-0.0384521,0.0797119-0.0830078,0.1516113-0.1253052,0.227417c-0.2397461,0.4293823-0.5363159,0.7949219-0.9127808,0.967041  c-0.6710205,0.3077393-1.5759277-0.0563965-2.3464966-0.5250244c-0.1781616-0.1083984-0.3515015-0.2205811-0.510437-0.333374  c-0.5415039-0.3808594-1.2895508-0.2539063-1.6728516,0.2861328c-0.1364746,0.192688-0.1864014,0.411438-0.1976929,0.6307983  c-0.0203857,0.3966675,0.1348267,0.7949219,0.4828491,1.0420532c0.1439209,0.1019897,0.2821045,0.1767578,0.4237671,0.2677612  c1.1699829,0.7515869,2.2651978,1.1502075,3.265686,1.1502075c0.5478516,0,1.0683594-0.1132813,1.5600586-0.3388672  c0.765686-0.3520508,1.3389893-0.9358521,1.7734375-1.5922241c0.4344482,0.6563721,1.0077515,1.2401733,1.7734375,1.5922241  c0.4921875,0.2255859,1.012207,0.3388672,1.5600586,0.3388672c1.0004883,0,2.095459-0.3984985,3.2653809-1.1502686  c0.1416016-0.0909424,0.2796631-0.1657715,0.423584-0.2677002c0.3483276-0.2471313,0.5037231-0.6453857,0.4834595-1.0419922  c-0.0111694-0.2194214-0.0609741-0.4381714-0.1973267-0.6308594C40.553093,53.307373,39.803093,53.1804199,39.265007,53.5622559z   M35.1888351,67.2497559l4.1086426-2.3717651c-1.7171021,0.2954102-3.6102905,0.4761353-5.6682739,0.4761353  c-2.0584717,0-3.9520264-0.1807861-5.6694336-0.4763184l4.1099243,2.3719482H35.1888351z M40.8314133,66.3093262  c-0.0771484-0.0439453-0.2324219-0.1015625-0.4130859,0l-4.7470703,2.7412109h-4.0839844l-4.7475586-2.7412109  c-0.1777344-0.1025391-0.3354492-0.0439453-0.4125977,0.0009766c-0.0771484,0.0439453-0.2070313,0.1503906-0.2070313,0.3574219  v3.9968262v3.5480957c0,0.2070313,0.1293945,0.3134766,0.206543,0.3574219s0.2324219,0.1054688,0.4125977,0l4.7480469-2.7402344  h4.0839844l4.7470703,2.7412109c0.1777344,0.1015625,0.3359375,0.0449219,0.4130859-0.0009766  c0.0771484-0.0439453,0.2060547-0.1494141,0.2060547-0.3574219v-3.5479126v-3.9970093  C41.037468,66.4597168,40.9085617,66.354248,40.8314133,66.3093262z M95.9202805,57.5964355  c-1.5292969,1.1972656-3.6660156,2.1699219-6.0175781,2.7363281c-1.4873047,0.3583984-2.9052734,0.5302734-4.2021484,0.5302734  c-1.9441528,0-3.5985718-0.397522-4.8153687-1.1186523c-4.6966553,5.911499-9.9592896,8.9182739-15.6758423,8.925293  c-0.0058594,0-0.0136719,0-0.0205078,0c-1.9591064,0-3.8358154-0.3612061-5.6077881-0.9536133  c3.3284302,5.6629639,5.2738037,12.4685059,5.2738037,19.7836914c0,0.828125-0.671875,1.5-1.5,1.5  c-0.8280029,0-1.4996948-0.6715698-1.499939-1.4995728c0-0.0001221-0.000061-0.0003052-0.000061-0.0004272  c0-8.7389526-2.994812-16.6801147-7.8535156-22.5422974c-0.2015381-0.2431641-0.4039917-0.4849243-0.6118774-0.7208252  c-0.0496216,0.0667114-0.112793,0.1286621-0.1644897,0.1946411c-2.0449219,2.6109009-5.7112427,4.6658936-10.3867188,5.8373413  v-3.6008911c0-0.8007813-0.4140625-1.5175781-1.1074219-1.9169922c-0.2008057-0.1159668-0.4137573-0.1883545-0.6303711-0.2371216  c3.9143677-0.9367065,6.5926514-2.5047607,7.5439453-3.9235229c0.1126099-0.1679077,0.2015991-0.3330688,0.2647095-0.4953613  c-0.6787109-0.5072021-1.3756714-0.9837646-2.0925903-1.423584c-0.0639038-0.0391846-0.1290894-0.0759277-0.1932373-0.114563  c-3.5293579,3.2186279-8.0592041,5.1570435-12.9940186,5.1570435c-4.9349976,0-9.4648438-1.9383545-12.9941406-5.1569824  c-0.7843018,0.472229-1.5465698,0.9857178-2.2857056,1.5380859c0.5964966,1.5336304,3.4308472,3.3712769,7.8082275,4.4188232  c-0.2169189,0.0487671-0.4300537,0.1210938-0.6309204,0.2371826c-0.6928711,0.4003906-1.1064453,1.1171875-1.1064453,1.9169922  v3.6009521c-4.7936401-1.2009888-8.5391226-3.3269043-10.5512075-6.0320435  c-5.2197266,5.9228516-8.4653931,14.1616821-8.4653931,23.2631226c0,0.0001221-0.000061,0.0003052-0.000061,0.0004272  c-0.0002441,0.8280029-0.6714478,1.4995728-1.4999392,1.4995728c-0.8286133,0-1.5-0.671875-1.5-1.5  c0-10.3372803,3.8836062-19.6564331,10.0700073-26.1693726c-0.1519165-0.592041-0.2554932-1.1950684-0.2554932-1.8180542  c0-1.6567383,1.3431396-3,3-3c0.7486572,0,1.4246817,0.2841187,1.9502554,0.7376099  c0.4454346-0.3165283,0.897583-0.6213989,1.3575439-0.9126587c-3.2730093-3.9719849-5.2697744-9.2354736-5.2697744-15.0020752  c0-0.1391602,0.0053711-0.2763672,0.0126953-0.4135742c-0.5615234-0.8950195-1.0581055-1.8251953-1.4863281-2.7851563  l-0.5771484,0.9057617c-1.2617188,1.9804688-3.2988281,2.8549805-5.3154297,2.2866211  c-2.3637698-0.6679688-3.9848633-3.09375-4.0341797-6.0361328c-0.0375977-2.2753906-0.1196289-4.3959961-0.2441406-6.3037109  C1.0677422,20.5500488,11.7742853,16.6862793,16.709343,15.3601074c4.1064453-2.8530273,9.9487305-4.3598633,16.9199219-4.3598633  c6.9716797,0,12.8134766,1.5068359,16.9208984,4.3598633c4.9345703,1.3261719,15.6416016,5.1904297,15.0966797,13.6279297  c-0.1240234,1.9111328-0.2070313,4.0327148-0.2460938,6.3056641c-0.0478516,2.940918-1.6679688,5.3666992-4.0322266,6.034668  c-2.0166016,0.5717773-4.0537109-0.3056641-5.3154297-2.2866211l-0.578125-0.9067383  c-0.4277344,0.9604492-0.9238281,1.8911133-1.4853516,2.7866211c0.0068359,0.137207,0.0126953,0.2744141,0.0126953,0.4135742  c0,5.3759766-1.7358398,10.3143921-4.6228027,14.177124c0.3607178,0.4163208,0.7776489,0.8783569,1.2462769,1.369751  c0.4232178-0.2282715,0.9000244-0.369751,1.4145508-0.369751c1.6567383,0,3,1.3432617,3,3  c0,0.4119263-0.0367432,0.8171997-0.1038818,1.2160034c2.8900146,2.1473389,6.4436646,3.9423218,10.2523804,3.9423218  c0.0097656,0,0.0185547-0.0009766,0.0283203-0.0009766c4.8164063-0.010437,9.3720703-2.9606934,13.5507813-8.7525024  c0.1062012-1.0584106,0.6760254-2.4336548,2.4677734-3.8373413c1.5292969-1.1972656,3.6660156-2.1699219,6.0175781-2.7363281  c2.3505859-0.5678711,4.6933594-0.6762695,6.6035156-0.3066406c3.2998047,0.6396484,4.203125,2.4404297,4.4482422,3.4560547  C98.5501633,53.5095215,98.5657883,55.5231934,95.9202805,57.5964355z M19.0175705,65.7589111  c0.088562,0.59552,0.6431274,1.0064697,1.2386475,0.9178467c0.59552-0.088562,1.0064087-0.6431274,0.9178467-1.2386475  s-0.6431274-1.0064087-1.2386475-0.9178467S18.9289474,65.1633911,19.0175705,65.7589111z M48.2409592,65.7589111  c0.088562-0.59552-0.3223877-1.1500854-0.9178467-1.2386475c-0.59552-0.088562-1.1500854,0.3223267-1.2386475,0.9178467  c-0.088623,0.59552,0.3223267,1.1500854,0.9178467,1.2386475C47.5978317,66.7653809,48.1523361,66.3544312,48.2409592,65.7589111z   M51.4099045,61.8552856c0.4678955,0.3788452,1.1543579,0.3067017,1.5332031-0.1611938  c0.0194092-0.0239868,0.0240479-0.0535889,0.0411377-0.0786743c0.3156738-0.4638062,0.2415771-1.0950928-0.2023315-1.4545288  c-0.4043579-0.3274536-0.9607544-0.2991943-1.3519897,0.0113525c-0.0614624,0.0488281-0.1297607,0.0863037-0.1812134,0.1498413  C50.8698654,60.789978,50.942009,61.4763794,51.4099045,61.8552856z M44.771843,56.1833496  c0.0744019-0.0695801,0.1419678-0.1473999,0.215271-0.2183228c0.37323-0.3610229,0.7357788-0.7344971,1.0802002-1.1292114  c0.0449829-0.0515747,0.0856323-0.107605,0.130127-0.159729c2.9689331-3.4783325,4.8048706-8.1706543,4.8048706-13.3408813  c0-0.1342773-0.0087891-0.2661133-0.0166016-0.3979492c-0.0078125-0.1230469-0.0146484-0.246582-0.0185547-0.3706055  l-0.015625-0.4755859l0.2617188-0.3974609c1.0859375-1.6513672,1.9111328-3.4462891,2.4511719-5.3359375l0.9150391-3.2021484  l4.0039063,6.2734375c0.546875,0.8588867,1.2480469,1.2167969,1.9697266,1.0126953  c0.8691406-0.2456055,1.8183594-1.3510742,1.8476563-3.1982422c0.0400391-2.3217773,0.125-4.4912109,0.2519531-6.4492188  c0.4111328-6.362793-9.0439453-9.5341797-13.1279297-10.6020508l-0.2695313-0.0703125l-0.2255859-0.1625977  c-3.6044922-2.5898438-8.9296875-3.9589844-15.4003906-3.9589844s-11.7958984,1.3691406-15.3994141,3.9589844l-0.2265625,0.1625977  l-0.2695313,0.0703125c-4.0839834,1.0678711-13.5385733,4.2387695-13.1279287,10.6025391  c0.1269531,1.9550781,0.2114258,4.125,0.25,6.4482422c0.0302734,1.847168,0.9804688,2.953125,1.8500977,3.1987305  c0.7255859,0.206543,1.4228516-0.1538086,1.9692383-1.0117188l4-6.2763672l0.9165039,3.2036133  c0.5405273,1.890625,1.3662109,3.6860352,2.4536123,5.3354492l0.2626953,0.3989258l-0.034668,0.8417969  c-0.0083008,0.1333008-0.0170898,0.2661133-0.0170898,0.4018555c0,5.2477417,1.8868408,10.0076904,4.9348755,13.5006714  c0.3444214,0.3947144,0.7069092,0.7681885,1.0801392,1.1292114c0.3977051,0.3847046,0.8114014,0.7469482,1.2393799,1.0906372  c2.8533325,2.291748,6.34198,3.6578979,10.1186523,3.6578979c3.7765503,0,7.2650757-1.3662109,10.1184692-3.657959  C44.0967941,56.7753296,44.4428024,56.4910889,44.771843,56.1833496z M15.8285456,60.1722412  c-0.3911743-0.3105469-0.9476318-0.3388062-1.3519897-0.0113525c-0.4439087,0.359436-0.5179443,0.9906616-0.2022705,1.4545288  c0.0170288,0.0250854,0.0216675,0.0546875,0.0410767,0.0786743c0.3789063,0.4678955,1.0653687,0.5400391,1.5332642,0.1611938  c0.4678946-0.3789063,0.5400381-1.0653076,0.1611319-1.5332031C15.9583063,60.2585449,15.890008,60.2210693,15.8285456,60.1722412z   M94.3831711,53.4382324c-0.4960938-0.4335938-2.7646484-1.0351563-6.1923828-0.2060547  c-3.4277344,0.8261719-5.1728516,2.3935547-5.4179688,3.0048828c0.4970703,0.4316406,2.7626953,1.0341797,6.1923828,0.2070313  C92.3929367,55.6179199,94.1390305,54.0495605,94.3831711,53.4382324z"/><text x="0" y="115" fill="#000000" font-size="5px" font-weight="bold" font-family="'Helvetica Neue', Helvetica, Arial-Unicode, Arial, Sans-serif">Created by Llisole</text><text x="0" y="120" fill="#000000" font-size="5px" font-weight="bold" font-family="'Helvetica Neue', Helvetica, Arial-Unicode, Arial, Sans-serif">from the Noun Project</text></svg>