<svg xmlns="http://www.w3.org/2000/svg" xmlns:xlink="http://www.w3.org/1999/xlink" version="1.1" x="0px" y="0px" viewBox="0 0 100 125" enable-background="new 0 0 100 100" xml:space="preserve"><path d="M49.6993332,56.3369141c3.2727051-3.9720459,5.2693481-9.2355957,5.2693481-15.0021973  c0-0.1391602-0.0058594-0.2763672-0.0126953-0.4130859c0.5615234-0.8959961,1.0576172-1.8266602,1.4853516-2.7861328  l0.578125,0.90625c1.2617188,1.980957,3.2988281,2.855957,5.3154297,2.2871094  c2.3642578-0.6679688,3.984375-3.09375,4.0332031-6.0351563c0.0390625-2.2861328,0.1220703-4.4077148,0.2451172-6.3056641  c0.5449219-8.4384766-10.1621094-12.3022461-15.0966797-13.6279297c-4.1074219-2.8535156-9.9492188-4.3603516-16.9204102-4.3603516  s-12.8129883,1.5068359-16.9199219,4.3603516C12.7411413,16.685791,2.0345986,20.5495605,2.5785439,28.9890137  c0.1245117,1.9077148,0.206543,4.0288086,0.2441406,6.3037109c0.0493164,2.9423828,1.6704099,5.3681641,4.0341797,6.0361328  c2.0166016,0.5668945,4.0537109-0.3061523,5.3154297-2.2866211l0.5771484-0.9057617  c0.4282227,0.9599609,0.9248047,1.8901367,1.4863281,2.7851563c-0.0073242,0.1367188-0.0126953,0.2739258-0.0126953,0.4130859  c0,5.7667847,1.9967051,11.0304565,5.2696543,15.0025635C9.888114,62.4190674,3.3705361,74.1054077,3.3705361,87.5002441  c0,0.828125,0.6713865,1.5,1.4999998,1.5s1.5-0.671875,1.5-1.5c0-0.000061,0-0.0001831,0-0.0002441  c0.000061-12.5733643,6.19104-23.5001831,15.2312021-28.9432983c3.5293579,3.2188721,8.0593262,5.1574097,12.9943848,5.1574097  c4.9349976,0,9.4649658-1.9386597,12.9942627-5.1576538C56.6309128,63.9995117,62.8221359,74.9264526,62.822197,87.5  c0,0.000061,0,0.0001831,0,0.0002441c0,0.828125,0.671875,1.5,1.5,1.5s1.5-0.671875,1.5-1.5  C65.822197,74.1051636,59.3044357,62.4186401,49.6993332,56.3369141z M44.7149582,57.0556641  c-1.9316406,1.5516357-4.1499023,2.68396-6.5592651,3.2459717c0.3435669-0.5024414,0.5556641-1.0757446,0.5556641-1.6949463  v-1.7484741c0.7798462-0.1427612,1.6110229-0.5089722,2.4834595-1.069397  c0.1417847-0.0910645,0.2801514-0.1659546,0.4242554-0.2680664c0.3478394-0.2469482,0.5031128-0.6451416,0.4829102-1.041687  c-0.0111694-0.2197266-0.0610962-0.4387817-0.1977539-0.6316528c-0.3837891-0.5410156-1.1318359-0.6699219-1.6728516-0.2851563  c-0.1591187,0.112793-0.3325806,0.2248535-0.5108643,0.3331299c-0.7705078,0.4677734-1.6748657,0.8305054-2.3465576,0.5247803  c-0.3762207-0.1720581-0.6726074-0.5374146-0.9121704-0.9666748c-0.0423584-0.0758667-0.086792-0.1478882-0.1252441-0.2275391  c1.0324097-0.18396,1.953064-0.5258789,2.6860352-0.9819946c1.0961304-0.6820679,1.7739258-1.6151733,1.7739258-2.6456299  c0-2.0884399-2.776001-3.7814331-6.2004395-3.7814331c-3.4243774,0-6.2003784,1.6929932-6.2003784,3.7814331  c0,1.0304565,0.6777954,1.963562,1.7739258,2.6456299c0.7317505,0.4553223,1.6504517,0.7969971,2.6807251,0.9812012  c-0.0384521,0.0789795-0.0791016,0.1534424-0.1211548,0.2283936c-0.242981,0.4334717-0.5414429,0.7965088-0.9084473,0.9651489  c-0.6738892,0.3093872-1.5783081-0.0546265-2.3493042-0.5233154c-0.1781616-0.1083374-0.3514404-0.2203979-0.5105591-0.3331299  c-0.5405273-0.3833008-1.2895508-0.2548828-1.6728516,0.2851563c-0.1366577,0.1928711-0.1865845,0.4119873-0.1977539,0.6316528  c-0.0202026,0.3966064,0.1350708,0.7947388,0.4829102,1.041687c0.144165,0.1021118,0.2825317,0.177002,0.4243774,0.2680664  c0.8725586,0.5603638,1.7035522,0.9265747,2.4833374,1.069397v1.7484741c0,0.6192627,0.2120361,1.1925659,0.5557861,1.6950073  c-2.4094849-0.5620117-4.6278687-1.6942139-6.5595703-3.2458496c-0.4279785-0.34375-0.8417358-0.7061157-1.2394409-1.0908203  c-0.3731689-0.3610229-0.7355347-0.734375-1.079895-1.1290894c-3.0479126-3.493103-4.9346924-8.2531738-4.9346924-13.5012207  c0-0.1352539,0.0087891-0.2680664,0.0170898-0.4013672l0.034668-0.8422852l-0.2626953-0.3989258  c-1.0874033-1.6489258-1.9130869-3.4443359-2.4536142-5.3354492l-0.9165039-3.2041016l-4,6.2773438  c-0.5458984,0.8574219-1.2451172,1.2163086-1.9692383,1.0117188c-0.8696289-0.2456055-1.8198242-1.3515625-1.8500977-3.1987305  c-0.0385742-2.3232422-0.1230469-4.4926758-0.25-6.4482422c-0.4106445-6.3637695,9.0439453-9.534668,13.1279306-10.6025391  l0.2695313-0.0703125l0.2265625-0.1625977c3.6040039-2.590332,8.9291992-3.9594727,15.3994141-3.9594727  s11.7954102,1.3691406,15.3999023,3.9594727l0.2255859,0.1625977l0.2695313,0.0703125  c4.0839844,1.0678711,13.5390625,4.2387695,13.1279297,10.6020508c-0.1259766,1.9448242-0.2099609,4.1137695-0.2509766,6.4492188  c-0.0302734,1.847168-0.9794922,2.9526367-1.8486328,3.1982422c-0.7197266,0.2041016-1.4228516-0.1538086-1.9697266-1.012207  l-4.0019531-6.2758789l-0.9160156,3.2036133c-0.5390625,1.8881836-1.3642578,3.6835938-2.4521484,5.3359375l-0.2617188,0.3974609  l0.015625,0.4755859c0.0039063,0.1245117,0.0107422,0.2480469,0.0185547,0.371582  c0.0078125,0.1313477,0.0166016,0.2631836,0.0166016,0.3969727c0,5.2479248-1.8867188,10.0078735-4.9343872,13.5009766  c-0.3444214,0.3947144-0.7068481,0.7682495-1.0800781,1.1292725C45.556633,56.3496094,45.1428757,56.7119141,44.7149582,57.0556641z   M32.4808884,56.7142334c0.1136475-0.0394287,0.2310791-0.0635986,0.3417969-0.1143799  c0.3897095-0.1791992,0.7253418-0.4226685,1.0234375-0.7003784v2.9386597c0,0.4140625,0.3359375,0.75,0.75,0.75  s0.75-0.3359375,0.75-0.75v-2.9386597c0.2980957,0.27771,0.633728,0.5211792,1.0234375,0.7003784  c0.1107178,0.0507813,0.2281494,0.0749512,0.3417969,0.1143799v1.8924561c0,0.78125-0.9677734,1.4404297-2.1166992,1.4404297  c-1.1459961,0-2.1137695-0.6591797-2.1137695-1.4404297V56.7142334z M28.9252853,33.0587158  c0,1.5117798-1.2255859,2.7373657-2.7373657,2.7373657s-2.7373657-1.2255859-2.7373657-2.7373657  c0-1.5118408,1.2255859-2.7373657,2.7373657-2.7373657S28.9252853,31.546875,28.9252853,33.0587158z M45.7416306,33.0587158  c0,1.5117798-1.2255859,2.7373657-2.7373657,2.7373657c-1.5118408,0-2.7373657-1.2255859-2.7373657-2.7373657  c0-1.5118408,1.2255249-2.7373657,2.7373657-2.7373657C44.5160446,30.3213501,45.7416306,31.546875,45.7416306,33.0587158z   M96.2196579,45.7663574c-1.8242188-4.409668-5.5068359-7.762207-10.1025391-9.1982422  c-6.9453125-2.1699219-14.6972656,0.7924805-18.4423828,7.0390625c-1.7978516,2.996582-2.5634766,6.3520508-2.2392578,9.7651367  l-5.7529297,3.3232422c-0.8945313,0.5175781-1.3603516,1.5097656-1.1845703,2.5292969  c0.1748047,1.0195313,0.9443359,1.8007813,1.9609375,1.9892578l9.3310547,1.7373047  c1.7041016,1.7978516,3.75,3.1435547,6.0888672,4.0039063c1.8046875,0.6640625,3.6640625,0.9804688,5.5,0.9804688  c5.8125,0,11.3857422-3.1757813,14.2138672-8.5634766C97.8163376,55.1359863,98.0448532,50.1765137,96.2196579,45.7663574z   M76.9139938,64.138916c-2.0351563-0.7480469-3.796875-1.9482422-5.2382813-3.5673828  c-0.2207031-0.2490234-0.5185547-0.4169922-0.8457031-0.4775391l-8.3427734-1.5537109l5.3115234-3.0693359  c0.5380859-0.3105469,0.8291016-0.9208984,0.7314453-1.534668c-0.4882813-3.0610352,0.1054688-6.0996094,1.7167969-8.7861328  c3.0419922-5.0732422,9.3408203-7.4790039,14.9755859-5.71875c3.7441406,1.1699219,6.7421875,3.8969727,8.2255859,7.4819336  c1.4833984,3.5854492,1.296875,7.6186523-0.5117188,11.0644531C89.962822,63.6437988,82.9266891,66.3537598,76.9139938,64.138916z   M90.1558151,48.6633301c0.1643677,4.9445801-4.901062,8.7105103-8.6755371,11.460022  c-0.140564,0.102417-0.3231812,0.102417-0.4637451,0c-3.7744751-2.7495117-8.8399048-6.5154419-8.6755371-11.460022  c0.0668335-2.0184937,1.586731-4.1399536,4.427002-4.1399536c2.3121338,0,3.4598389,2.0447998,4.1253052,3.3821411  c0.1467285,0.2949219,0.5634766,0.2949219,0.7102051,0c0.6654663-1.3373413,1.8131714-3.3821411,4.1253052-3.3821411  C88.5690842,44.5233765,90.0889816,46.6448364,90.1558151,48.6633301z"/><text x="0" y="115" fill="#000000" font-size="5px" font-weight="bold" font-family="'Helvetica Neue', Helvetica, Arial-Unicode, Arial, Sans-serif">Created by Llisole</text><text x="0" y="120" fill="#000000" font-size="5px" font-weight="bold" font-family="'Helvetica Neue', Helvetica, Arial-Unicode, Arial, Sans-serif">from the Noun Project</text></svg>