<svg xmlns="http://www.w3.org/2000/svg" xmlns:xlink="http://www.w3.org/1999/xlink" version="1.1" x="0px" y="0px" viewBox="0 0 100 125" enable-background="new 0 0 100 100" xml:space="preserve"><path d="M48.2983818,34.4482803v-2.1025391c0-0.4140625,0.3359375-0.75,0.75-0.75s0.75,0.3359375,0.75,0.75v1.9326172h1.1533203  c0.4140625,0,0.75,0.3359375,0.75,0.75s-0.3359375,0.75-0.75,0.75h-1.3232422  C48.8950615,35.7783585,48.2983818,35.1816788,48.2983818,34.4482803z M43.2538261,31.0860367  c0.8066406,0,1.4605713-0.6538696,1.4605713-1.4605103s-0.6539307-1.4605713-1.4605713-1.4605713  s-1.4605103,0.6539307-1.4605103,1.4605713S42.4471855,31.0860367,43.2538261,31.0860367z M56.7461357,31.0860367  c0.8066406,0,1.4605103-0.6538696,1.4605103-1.4605103s-0.6538696-1.4605713-1.4605103-1.4605713  s-1.4605713,0.6539307-1.4605713,1.4605713S55.9394951,31.0860367,56.7461357,31.0860367z M50.000042,40.7114639  c1.7749023,0,3.6713867-0.4316406,3.6713867-1.6430664c0-0.4140625-0.3359375-0.75-0.75-0.75  c-0.3339844,0-0.6181641,0.21875-0.7148438,0.5209961c-0.25,0.1489258-1.0395508,0.3720703-2.206543,0.3720703  s-1.9560547-0.2231445-2.2070313-0.371582c-0.0966797-0.3027344-0.3798828-0.5214844-0.7143555-0.5214844  c-0.4140625,0-0.75,0.3359375-0.75,0.75C46.3286552,40.2798233,48.2251396,40.7114639,50.000042,40.7114639z M48.2398491,69.7126236  c0-0.6185303-0.5014038-1.1199341-1.1199341-1.1199341s-1.1199341,0.5014038-1.1199341,1.1199341  s0.5014038,1.1199341,1.1199341,1.1199341S48.2398491,70.3311539,48.2398491,69.7126236z M52.8800468,68.5926895  c-0.6185303,0-1.1199341,0.5014038-1.1199341,1.1199341s0.5014038,1.1199341,1.1199341,1.1199341  s1.1199341-0.5014038,1.1199341-1.1199341S53.4985771,68.5926895,52.8800468,68.5926895z M51.9712334,77.5615616  c-0.0808716,0.057373-0.1882324,0.1218262-0.3017578,0.1814575c-0.2168579,0.1138916-0.4641113,0.2003784-0.6474609,0.1183472  c-0.0996094-0.0453491-0.1816406-0.1409302-0.2540894-0.2545166c-0.0247192-0.0388794-0.0440674-0.0845947-0.0657349-0.1279297  c0.4352417-0.0892944,0.809021-0.2557373,1.0761108-0.4766846c0.270813-0.223999,0.4360962-0.4981689,0.4360962-0.7978516  c0-0.7458496-0.9914551-1.3504639-2.2144165-1.3504639s-2.2144165,0.6046143-2.2144165,1.3504639  c0,0.2996826,0.1653442,0.5739136,0.4361572,0.7979126c0.2669678,0.2208252,0.6403198,0.387146,1.0752563,0.4765015  c-0.0216064,0.043335-0.0405884,0.0891724-0.0653076,0.1280518c-0.0720825,0.1135254-0.1538696,0.2089844-0.2526245,0.2545166  c-0.1849365,0.0820313-0.4321289-0.0043945-0.6487427-0.1182861c-0.1134033-0.0596313-0.2207642-0.1241455-0.3014526-0.1815186  c-0.2250977-0.1582031-0.5380859-0.1074219-0.6972656,0.1191406c-0.0771484,0.1090088-0.1021729,0.237854-0.0844116,0.3602295  c0.0189819,0.1308594,0.0872192,0.2542725,0.2035522,0.3370361c0.135437,0.0958252,0.2676392,0.175293,0.3977051,0.2446289  c0.3393555,0.1809692,0.6606445,0.2749023,0.9606934,0.2749023c0.2055664,0,0.4018555-0.0429688,0.5874023-0.1279297  c0.2337036-0.1074829,0.4181519-0.2730103,0.5665283-0.4622803c0.0128784-0.0164795,0.0245972-0.0331421,0.0369263-0.0499878  c0.0123291,0.0168457,0.0240479,0.0335083,0.0369263,0.0499878c0.1484375,0.18927,0.3329468,0.3547974,0.5666504,0.4622803  c0.1855469,0.0849609,0.3813477,0.1279297,0.5874023,0.1279297c0.2999878,0,0.621582-0.0939941,0.9608154-0.2749023  c0.130127-0.0693359,0.2622681-0.1488037,0.397583-0.2446289c0.1165771-0.0827637,0.1846924-0.2061157,0.2035522-0.3369751  c0.0176392-0.1223755-0.0075073-0.2512817-0.0844116-0.3602905C52.5083427,77.4551163,52.1958427,77.404335,51.9712334,77.5615616z   M78.9038467,83.4316788c-0.5449219,1.0800781-1.5283203,1.8798828-2.6982422,2.1923828l-10.7241211,2.8648682v0.5179443  c0,0.5522461-0.4476929,1-1,1h-1.794796c-0.0935669,0.0256958-0.1837769,0.0618286-0.2789307,0.0820313l-0.8065796,0.1715698  c0.0640259,0.65271,0.1083374,1.3132935,0.1083374,1.9885864c0,0.4140625-0.3359375,0.75-0.75,0.75s-0.75-0.3359375-0.75-0.75  c0-0.000061,0-0.0001831,0-0.0002441c0-0.5679321-0.0324097-1.1246948-0.0809937-1.6750488l-2.4356079,0.5180664  c-0.1220703,0.0263672-0.2451172,0.0390625-0.3671875,0.0390625c-0.3349609,0-0.6640625-0.0966797-0.953125-0.2841797  c-0.3140259-0.2041626-0.5448608-0.4981079-0.6769409-0.8398438c-0.0334473-0.0865479-0.0650635-0.1741943-0.0847778-0.2666016  c-0.0253906-0.1201172-0.0380859-0.2412109-0.0380859-0.359375c-0.8173828,0.0146484-1.578125-0.5537109-1.7558594-1.3896484  c-0.0410156-0.1923828-0.0498047-0.3876953-0.0263672-0.5771484c-0.1396484-0.046875-0.2744141-0.1123047-0.4013672-0.1943359  c-0.3935547-0.2558594-0.6640625-0.6494141-0.7617188-1.1064453c-0.0976563-0.4580078-0.0107422-0.9267578,0.2451172-1.3203125  c0.050293-0.0775146,0.114624-0.1398315,0.1744995-0.2070313c0.0389404-0.0437012,0.0708618-0.0950928,0.1135864-0.1347656  c-0.0966797-0.1611328-0.1699219-0.3417969-0.2109375-0.5371094c-0.0056152-0.0259399-0.0045776-0.052063-0.0089722-0.078064  c-0.0429077-0.253479-0.0272827-0.507019,0.039978-0.750061c0.0474243-0.1713257,0.1133423-0.3383789,0.2131348-0.4921875  c0.2568359-0.3945313,0.6503906-0.6650391,1.109375-0.7617188l2.0759277-0.4526367  c-0.5687256-0.6239014-1.189209-1.1591187-1.8479004-1.6072998c-1.2598877,1.0540771-2.8275146,1.6878662-4.53125,1.6878662  c-1.7039795,0-3.2717285-0.633728-4.5316162-1.6876831c-0.6585693,0.4481201-1.2788696,0.9833374-1.8474731,1.6070557  l2.0807495,0.4536743c0.4536133,0.0947266,0.847168,0.3652344,1.1035156,0.7597656  c0.0998535,0.1539917,0.1659546,0.3214111,0.213501,0.4931641c0.0672607,0.242981,0.0831299,0.496521,0.0405884,0.750061  c-0.0043945,0.0263672-0.0033569,0.0527344-0.0089722,0.0790405c-0.0415039,0.1943359-0.1142578,0.375-0.2114258,0.5371094  c0.043335,0.0396729,0.0740356,0.0901489,0.1130981,0.1337891c0.3604736,0.4033203,0.5412598,0.9589844,0.420105,1.5273438  c-0.0966797,0.4570313-0.3671875,0.8505859-0.7612305,1.1064453c-0.1269531,0.0820313-0.262207,0.1474609-0.4018555,0.1943359  c0.0229492,0.1894531,0.0146484,0.3847656-0.0263672,0.5771484c-0.1767578,0.8359375-0.9326172,1.4101563-1.7548828,1.3896484  c-0.0004883,0.1181641-0.0126953,0.2382813-0.0385742,0.359375c-0.0196533,0.0924072-0.0512085,0.1800537-0.0845947,0.2666016  c-0.1318359,0.3417358-0.3627319,0.6356812-0.677124,0.8398438c-0.2885742,0.1875-0.6176758,0.2841797-0.953125,0.2841797  c-0.1220703,0-0.2451172-0.0126953-0.3671875-0.0390625l-2.4356079-0.5180054  c-0.048584,0.550293-0.0809937,1.1071167-0.0809937,1.6749878c0,0.000061,0,0.0001831,0,0.0002441  c0,0.4140625-0.3359375,0.75-0.75,0.75s-0.75-0.3359375-0.75-0.75c0-0.6752319,0.0443115-1.3357544,0.1083374-1.9884033  l-0.8075562-0.1717529c-0.0947876-0.0201416-0.1843262-0.0564575-0.2774658-0.0820313h-1.7718506  c-0.5654297,0-1.0234375-0.4943848-1.0234375-1.104248v-0.4133911l-10.7241211-2.8651733  c-1.1699219-0.3125-2.1533203-1.1123047-2.6982422-2.1923828c-0.5449219-1.0830078-0.6025391-2.3486328-0.1586914-3.4736328  l5.9312744-15.0358887l-2.7178955-1.1525269c-0.5270996-0.2235107-0.762207-0.836853-0.512146-1.3519287  c1.6392212-3.3768311,7.5047607-14.6654663,12.8427734-15.0696411c0.3397827-0.0257568,0.6529541-0.0321045,0.9569702-0.0321045  v0.010498v14.434021c-0.0715942,0.0192871-0.1424561,0.039917-0.2111816,0.0657349  c-0.5427856,0.2040405-0.9840698,0.6043091-1.246582,1.1157227c-0.0675659,0.1315918-0.1216431,0.2693481-0.1633301,0.4140015  c-0.0586548,0.2037964-0.1000977,0.4147949-0.1000977,0.6372681c0,0.3704224,0.0952148,0.7159424,0.2501221,1.0268555  c0.0386353,0.0776367,0.0769653,0.1553345,0.1237793,0.2277222c0.4137573,0.6400757,1.130249,1.0667114,1.9473877,1.0667114  c1.2797852,0,2.3212891-1.0410156,2.3212891-2.3212891c0-1.0714111-0.7331543-1.9663086-1.7211914-2.2327271V47.3100967h2.9093018  c0.258606,0,0.5070801,0.1004639,0.6932373,0.2797852h1.1572266v-3.8720703c0-0.0211182,0.0079956-0.0402222,0.0097046-0.0609741  c-2.9383545-1.7277832-4.7159424-4.5459595-5.7809448-7.9361572c-0.1322021,0.0249023-0.2658081,0.0376587-0.4001465,0.0376587  c-1.2539063,0.0004883-2.5600586-1.059082-3.2060547-2.7172852c-0.7817383-2.0087891-0.2563477-4.0249023,1.1958008-4.590332  c0.0673828-0.0263062,0.1402588-0.0300903,0.2095947-0.0491333c-0.4721069-2.2299805-2.1150513-11.6526489,2.418335-17.2360229  c2.3129883-2.8500977,5.8354492-4.2172852,10.4536133-4.0566406c0.121582,0.0039063,0.2387695,0.03125,0.3466797,0.078125  c5.8759766-0.6967773,10.2851563,0.5649414,13.1132813,3.7509766c4.8827477,5.498107,3.3918419,14.8929434,2.8637047,17.4747925  c0.0531616,0.0159912,0.1096191,0.0175781,0.1616821,0.0379028c0.7373047,0.2871094,1.2734375,0.9824219,1.4697266,1.9082031  c0.1748047,0.824707,0.0771484,1.7768555-0.2744141,2.6816406c-0.3525391,0.9047852-0.9248047,1.6723633-1.6123047,2.1611328  c-0.5136681,0.3657227-1.0693321,0.5541992-1.6005821,0.5541992c-0.1310425,0-0.2603149-0.0120239-0.3872681-0.0350342  c-1.0643311,3.4046631-2.8435669,6.2321167-5.7877808,7.9578247c0.0007324,0.0137939,0.0100098,0.0252075,0.0100098,0.0391235  v3.8720703h1.1582031c0.1862183-0.1793823,0.4346313-0.2797852,0.6932373-0.2797852h1.7823486v4.4628296  c-0.9124146,0.0733032-1.68396,0.5405884-2.0777588,1.2044678c-0.1766357,0.2977905-0.2855225,0.6290894-0.2855225,0.9845581  v4.5136719c0,1.4521484,0.65625,2.7607422,1.7041016,3.6777344c-0.3457031,0.0878906-0.7089844,0.1347656-1.0839844,0.1347656  H58.276104c-0.1032104-0.2852173-0.3700562-0.4915771-0.6908569-0.4915771h-0.9568481  c-0.4093628,0-0.7412109,0.3318481-0.7412109,0.7412109v0.6218262c0,0.4093628,0.3318481,0.7412109,0.7412109,0.7412109h0.9568481  c0.289978,0,0.534729-0.1708374,0.6564941-0.4134521h0.25c0.8408203,0,1.6367188-0.1855469,2.34375-0.5146484  c0.6784668,0.3162231,1.4411011,0.4954224,2.2455444,0.5093384c0.0327759,0.0005493,0.0643311,0.0053101,0.097229,0.0053101  h0.2496948c0.0003052,0.0006104,0.0008545,0.0011597,0.0011597,0.00177  c0.1221924,0.2415771,0.3661499,0.4116821,0.6553307,0.4116821h0.2901001h0.0228882h0.6438599  c0.0296631,0,0.0549316-0.0134888,0.0836792-0.0169067c0.0228882-0.0026855,0.0442505-0.008728,0.0664673-0.0134277  c0.1080322-0.0230713,0.2050171-0.0656738,0.2900391-0.130188c0.1782837-0.135376,0.3010254-0.3395386,0.3010254-0.5806885  v-0.6218262c0-0.2411499-0.1227417-0.4453125-0.3010254-0.5806885c-0.102417-0.0777588-0.222168-0.1278076-0.3565063-0.1436157  c-0.0287476-0.003418-0.0540161-0.0169067-0.0836792-0.0169067h-0.666748h-0.0011597h-0.2889404  c-0.1728477,0-0.3248253,0.0685425-0.4508629,0.1677246c-0.1079102,0.0848999-0.1923828,0.1923218-0.2399902,0.3238525h-0.215332  c-0.0774536,0-0.1520386-0.0102539-0.2284546-0.0142212c-0.1544189-0.0079346-0.3067017-0.0216064-0.4561768-0.045105  c-0.1346436-0.0211182-0.2693481-0.0424194-0.399353-0.0754395c0.0877075-0.0767212,0.168396-0.1600952,0.2504272-0.2421875  c0.1133423-0.1133423,0.2203369-0.2316895,0.3222046-0.3545532c0.1931152-0.2329712,0.364502-0.4813843,0.512146-0.7446289  c0.1744995-0.3110962,0.314209-0.6411743,0.416748-0.9865723c0.1277466-0.4302979,0.2025757-0.8812866,0.2025757-1.3497925  v-1.7591553v-1.055603v-0.9188232v-0.7800903c0-1.1481323-1.0420532-2.0834351-2.3642578-2.1891479v-4.401123v-0.0615845h0.9765625  c0.0037842,0,0.0073242,0.0012207,0.0111084,0.0012207c0.3425293-0.0040283,0.7072144,0.0072632,1.0966187,0.0367432  c5.3380089,0.4041748,11.2034874,11.6928101,12.8427696,15.0696411c0.25,0.5150757,0.0149536,1.128418-0.512146,1.3519287  l-2.7179565,1.1525269l5.9309692,15.0358887C79.5063858,81.083046,79.4487686,82.3496475,78.9038467,83.4316788z   M62.7855034,34.2511368c0.21521-0.0045776,0.4624023-0.0947876,0.7111206-0.2711182  c0.4453125-0.3168945,0.8408165-0.8579102,1.0839806-1.4838867c0.2441406-0.6259766,0.3193359-1.2915039,0.2060547-1.8261719  c-0.0527344-0.2475586-0.1943359-0.684082-0.5478516-0.8217773c-0.0771484-0.0297852-0.15625-0.0424805-0.2353516-0.0424805  c-0.1652184,0-0.325985,0.0569458-0.4658775,0.1259766C63.3665581,31.4260635,63.1235771,32.8750992,62.7855034,34.2511368z   M37.2193413,34.2535782c-0.3400269-1.3766479-0.5841064-2.8265381-0.7559204-4.3216553  c-0.1400757-0.069397-0.3012085-0.126709-0.4667969-0.126709c-0.0791016,0-0.1582031,0.0131836-0.2353516,0.0429688  c-0.5629883,0.2192383-0.8291016,1.3984375-0.3427734,2.6484375C35.8418999,33.5822525,36.6454277,34.2421036,37.2193413,34.2535782  z M65.8745499,79.584877l3.53125-0.9432373l-3.53125-8.9526978V79.584877z M56.2062798,49.0898819h-0.3551636  c-0.4140625,0-0.75-0.3359375-0.75-0.75v-3.9221802c-1.4428711,0.59021-3.1156616,0.9599609-5.0629883,1.0588989  c-1.9795532-0.0999756-3.6781616-0.4752197-5.1396484-1.076416v3.9396973c0,0.4140625-0.3359375,0.75-0.75,0.75h-0.3543091  l5.5110474,5.3249512c0.3875122,0.3744507,1.0021362,0.3744507,1.3897095,0L56.2062798,49.0898819z M44.8393364,42.7023087  c0.3356323,0.1690063,0.696167,0.3112793,1.0617676,0.447937c0.4071045,0.1522217,0.8336182,0.2840576,1.2793579,0.3952026  c0.8806152,0.2195435,1.8168945,0.3803101,2.857666,0.4331055c1.3250732-0.067749,2.5095215-0.2814941,3.576355-0.621582  c0.3358765-0.1070557,0.6473999-0.2404785,0.9593506-0.3733521c0.2889404-0.1231079,0.567688-0.2575073,0.836731-0.4023438  c2.8008423-1.5072632,4.5483398-4.177002,5.5957031-7.7664795c0.1054077-0.3613281,0.2088013-0.725769,0.3004761-1.1054077  c0.2433472-1.0073853,0.4428711-2.0742188,0.598999-3.2042847c0.0606079-0.4388428,0.1098633-0.8950195,0.1588135-1.3514404  c0.0232544-0.2171021,0.0498047-0.4291992,0.0705566-0.6502075l-0.6453247-0.8901367  c-4.3291016-2.3291016-6.4521484-6.0380859-7.3974609-8.3022461c-2.4501953,2.8022461-6.4189453,2.7543945-6.6210938,2.7470703  c-0.4316406-0.0097656-0.8027344-0.3095703-0.902832-0.7294922c-0.0253906-0.1079102-0.0317383-0.2172852-0.0200195-0.3227539  c-2.3359375,0.9165039-4.5454102,1.0429688-4.7114258,1.0512695c-0.3276367,0.0195313-0.6337891-0.1376953-0.8183594-0.3935547  c-1.1723633,0.5400391-2.168457,0.7558594-2.6293945,0.8334961c-0.3062744,0.7481079-0.5632935,1.661377-0.7388306,2.7615356  c0.0576172,1.3596802,0.1525269,2.6574097,0.2856445,3.8955688c0.0491333,0.4569702,0.0986938,0.9136353,0.1596069,1.3530273  c0.156311,1.1268921,0.3561401,2.1907349,0.5996094,3.1955566c0.0921021,0.3800049,0.1957397,0.744873,0.3016357,1.1065063  C40.0758476,38.4934464,41.8898125,41.2170181,44.8393364,42.7023087z M39.1518974,81.9394913  c-0.5761719-0.1191406-1.1030273-0.0917969-1.6293945,0.0644531c-0.1826172,0.0527344-0.378418,0.0371094-0.5488281-0.0478516  c-0.1640625-0.0820313-0.3388672-0.1474609-0.5205078-0.1962891l-0.7570801-0.2022705l-6.3015137-1.6834717  c-0.2070313-0.0556641-0.3798828-0.1962891-0.4765625-0.3867188c-0.0961914-0.1914063-0.1064453-0.4140625-0.027832-0.6132813  l4.4250488-11.2183838l-5.0646973-2.147644l-5.9174805,15.0007935c-0.2875977,0.7275391-0.25,1.546875,0.1025391,2.2480469  c0.3525391,0.6982422,0.9887695,1.2158203,1.7460938,1.4179688l10.3369141,2.7615356l0.5161133,0.1378784  c0.078125,0.0205078,0.159668,0.0263672,0.2407227,0.0341797l0.1362305,0.015625  c0.1889648,0.0224609,0.362793,0.1171875,0.4848633,0.2636719c0.5170898,0.6357422,1.2255859,1.0683594,2.0063477,1.234375  l0.6983032,0.1484985l0.7314453,0.1555176l0.7337646,0.1560669l2.5527954,0.5428467  c0.0898438,0.0195313,0.1582031-0.0146484,0.1914063-0.0371094c0.0336914-0.0214844,0.0927734-0.0712891,0.1118164-0.1601563  c0.0283203-0.1347656-0.0615234-0.2734375-0.1972656-0.3027344l-2.5639038-0.5457764l-0.3584595-0.0762939  c-0.1358032-0.0286865-0.2547607-0.0969849-0.3527832-0.1888428c-0.0887451-0.0831299-0.1610107-0.1850586-0.201416-0.3043213  c-0.0849609-0.2509766-0.03125-0.5273438,0.1411133-0.7285156c0.0936279-0.1089478,0.2304688-0.2011108,0.3774414-0.2583618  c0.1335449-0.052063,0.2753906-0.0757446,0.4018555-0.0492554l0.3648682,0.0775757l3.8792725,0.8247681  c0.1342773,0.0214844,0.2734375-0.0615234,0.3022461-0.1962891c0.019043-0.0898438-0.0141602-0.1591797-0.0361328-0.1923828  c-0.0214844-0.0332031-0.0712891-0.0917969-0.1601563-0.1113281l-3.8173828-0.8125  c-0.0046997-0.0009766-0.0079956-0.0043945-0.0126343-0.0054932c-0.3149414-0.0731201-0.5309448-0.3354492-0.5670776-0.6412964  c-0.0093994-0.0794678-0.0150757-0.1602783,0.0025635-0.2428589c0.0310059-0.1470337,0.119751-0.2876587,0.2286377-0.4006958  c0.0350342-0.036377,0.0632324-0.0817261,0.1038818-0.1080933c0.1669922-0.1074219,0.3764648-0.1796875,0.5722656-0.1396484  l0.232666,0.0494995l4.3405762,0.9231567c0.0898438,0.0195313,0.1577148-0.0146484,0.1914063-0.0371094  c0.0332031-0.0214844,0.0922852-0.0712891,0.1108398-0.1591797c0.0292969-0.1357422-0.0605469-0.2744141-0.1958008-0.3037109  l-4.2340698-0.9014282l-0.0501709-0.0106812l-0.2890015-0.0615234c-0.142334-0.0302124-0.2567139-0.1081543-0.3543091-0.2023926  c-0.1329956-0.128418-0.2132568-0.2969971-0.2249756-0.4860229c-0.0041504-0.0665894-0.0124512-0.1328125,0.0021362-0.2012329  c0.0410156-0.1943359,0.1655273-0.4003906,0.3325195-0.5087891c0.0266113-0.0172729,0.0593872-0.0249634,0.0880127-0.0400391  c0.1508179-0.0795898,0.3209229-0.1332397,0.4842529-0.0996094l0.0293579,0.0062256l0.4386597,0.0933838l0.3434448,0.0731201  l3.0059204,0.6397705c0.1357422,0.0322266,0.2739258-0.0615234,0.3027344-0.1972656  c0.019043-0.0888672-0.0146484-0.1582031-0.0361328-0.1914063c-0.0219727-0.0332031-0.0712891-0.0917969-0.1601563-0.1113281  l-0.9765015-0.2128906L39.1518974,81.9394913z M30.5942802,78.6416397l3.5307617,0.9432373v-9.894104L30.5942802,78.6416397z   M56.949749,70.7021866l0.4570313-1.6015625l1.6855469,2.6425781c0.0986328,0.1552734,0.2607422,0.3300781,0.4648438,0.2705078  c0.2441406-0.0693359,0.4960938-0.4140625,0.5039063-0.9394531c0.0126953-0.7578125,0.0410156-1.5429688,0.0908203-2.3134766  c0.1396484-2.1738281-3.4316406-3.2783203-4.5292969-3.5654297l-0.2480469-0.1162109  c-1.25-0.8994141-3.1083984-1.3740234-5.3745117-1.3740234s-4.1245117,0.4746094-5.3745117,1.3740234l-0.1132813,0.0810547  l-0.1352539,0.0351563c-1.0976563,0.2871094-4.668457,1.3916016-4.5283203,3.5654297  c0.0498047,0.7705078,0.0766602,1.5556641,0.0893555,2.3125c0.0087891,0.5263672,0.2607422,0.8710938,0.5048828,0.9404297  c0.2026367,0.0556641,0.3652344-0.1142578,0.4643555-0.2705078l1.6845703-2.6435547l0.4580078,1.6025391  c0.1870117,0.6542969,0.4726563,1.2753906,0.8486328,1.8457031l0.1308594,0.1982422l-0.0195313,0.5068359  c0,1.8046875,0.6430054,3.4418945,1.6820679,4.6487427c0.1713867,0.1990356,0.3519287,0.3874512,0.5439453,0.5616455  c0.2056885,0.1867065,0.4250488,0.3540649,0.6518555,0.5093384c0.9084473,0.6220703,1.9716797,0.9873047,3.1123657,0.9873047  s2.2039185-0.3652954,3.1123047-0.9873657c0.2267456-0.1553345,0.4460449-0.3226318,0.6517334-0.5092773  c0.1919556-0.1741943,0.3726196-0.3626709,0.5439453-0.5617065c1.0389404-1.2067871,1.6817627-2.8440552,1.6817627-4.6486816  l-0.0195313-0.5068359l0.1308594-0.1982422C56.4761162,71.9785538,56.762249,71.35746,56.949749,70.7021866z M77.6675186,80.5088272  l-5.9172974-15.0011597l-5.0656128,2.1480103l4.425293,11.2183838c0.0791016,0.1992188,0.0683594,0.421875-0.0273438,0.6132813  c-0.0966797,0.1904297-0.2695313,0.3310547-0.4765625,0.3867188l-6.3024292,1.6832886l-0.7581139,0.2024536  c-0.1796875,0.0488281-0.3554688,0.1142578-0.5205078,0.1972656c-0.1699219,0.0839844-0.3652344,0.0996094-0.5478516,0.046875  c-0.5263672-0.15625-1.0517578-0.1826172-1.5673828-0.078125l-5.3201904,1.1601563l-0.9718018,0.2119141  c-0.09375,0.0205078-0.1435547,0.0791016-0.1650391,0.1123047s-0.0546875,0.1025391-0.0361328,0.1904297  c0.0292969,0.1367188,0.1728516,0.2314453,0.3027344,0.1982422l3.0059204-0.6397705l0.3434448-0.0731201l0.4385376-0.0933228  l0.02948-0.0062866c0.1900635-0.039917,0.3873291-0.0021973,0.5516968,0.0996094  c0.0045776,0.0028076,0.0101929,0.0029297,0.0147095,0.0058594c0.1679688,0.109375,0.2841797,0.28125,0.3242188,0.4765625  c0.0180664,0.0878906,0.0142822,0.1784668,0.0032349,0.2676392c-0.0221558,0.1779175-0.1022949,0.3397827-0.2199707,0.468689  c-0.0946655,0.1037598-0.2059937,0.1897583-0.3467407,0.2197266l-0.2889404,0.0615234l-0.0498047,0.0106201l-4.2335205,0.9014893  c-0.1357422,0.0292969-0.2255859,0.1679688-0.1972656,0.3027344c0.0195313,0.0888672,0.078125,0.1386719,0.1113281,0.1601563  c0.0351563,0.0224609,0.1025391,0.0576172,0.1914063,0.0371094l4.3410034-0.9232788l0.2322388-0.0493774  c0.2445679-0.0557861,0.4788208,0.0292358,0.6516724,0.1871338c0.1114502,0.1018066,0.2025146,0.2279663,0.2369995,0.3861084  c0.0200195,0.0903931,0.0206909,0.1911011,0.008728,0.2894897c-0.0137939,0.1130981-0.0454712,0.2232056-0.1034546,0.3130493  c-0.1049194,0.1640625-0.2641602,0.3110352-0.4534302,0.3560791c-0.0045166,0.0010986-0.0078125,0.005249-0.0123901,0.0062256  l-3.8164063,0.8125c-0.0898438,0.0195313-0.1396484,0.078125-0.1621094,0.1123047  c-0.0214844,0.0332031-0.0546875,0.1025391-0.0361328,0.1904297c0.0283203,0.1347656,0.1669922,0.2216797,0.3037109,0.1972656  l3.8787231-0.8248291l0.3644409-0.0775146c0.0517578-0.0117188,0.1044922-0.0166016,0.15625-0.0166016  c0.0845337,0,0.1641235,0.0269165,0.2427368,0.0541992c0.128479,0.0446167,0.248291,0.1115112,0.3373413,0.2211914  c0.1660156,0.2021484,0.2412109,0.5078125,0.1552734,0.7539063c-0.0394287,0.1120605-0.100769,0.2150879-0.1772461,0.3019409  c-0.0921021,0.1046753-0.2073364,0.1847534-0.347168,0.2146606l-0.3589478,0.076416l-2.5639038,0.5456543  c-0.1357422,0.0292969-0.2255859,0.1679688-0.1972656,0.3037109c0.0195313,0.0878906,0.078125,0.1376953,0.1123047,0.1591797  c0.0341797,0.0224609,0.1025391,0.0576172,0.1904297,0.0371094l2.5532837-0.5430298l0.7335815-0.1560059l0.7315674-0.1555786  l0.6973877-0.1483154c0.7822266-0.1660156,1.4902344-0.5986328,1.9960899-1.21875  c0.1220703-0.1503906,0.3037109-0.2558594,0.4960938-0.2792969l0.1357422-0.015625  c0.0810547-0.0078125,0.1630859-0.0136719,0.2441406-0.0351563l0.5131836-0.137085l10.3374023-2.7613525  c0.7558594-0.2021484,1.3925781-0.7197266,1.7451172-1.4189453C77.9165421,82.0557022,77.954628,81.2363663,77.6675186,80.5088272z   M59.0708427,53.9619522v0.9647217v3.5489502c0,1.2939453,0.6992188,2.4394531,1.7636719,3.1289063  c0.3692627-0.2389526,0.6906128-0.5356445,0.9580688-0.8713379c0.1292725-0.1623535,0.2463989-0.3328247,0.3470459-0.5133057  c0.2027588-0.3634033,0.3422852-0.7608643,0.4098511-1.1802979c0.0297241-0.1845093,0.0496826-0.3718872,0.0496826-0.5639648  v-0.9666748v-1.6872559v-1.8597412c0-0.5478516-0.6455078-1.0107422-1.4082031-1.0107422h-0.7119141  C59.7163506,52.95121,59.0708427,53.4141006,59.0708427,53.9619522z M36.7461967,63.850441  c-0.0055542,0.0491333-0.0288696,0.0921631-0.0288696,0.1427612c0,0.7285156,0.5927734,1.3212891,1.3212891,1.3212891  s1.3212891-0.5927734,1.3212891-1.3212891s-0.5927734-1.3212891-1.3212891-1.3212891  c-0.3565063,0-0.6779785,0.1450195-0.9158936,0.3753662C36.9081841,63.254921,36.7815971,63.5382462,36.7461967,63.850441z"/><text x="0" y="115" fill="#000000" font-size="5px" font-weight="bold" font-family="'Helvetica Neue', Helvetica, Arial-Unicode, Arial, Sans-serif">Created by Llisole</text><text x="0" y="120" fill="#000000" font-size="5px" font-weight="bold" font-family="'Helvetica Neue', Helvetica, Arial-Unicode, Arial, Sans-serif">from the Noun Project</text></svg>