<svg xmlns="http://www.w3.org/2000/svg" xmlns:xlink="http://www.w3.org/1999/xlink" version="1.1" x="0px" y="0px" viewBox="0 0 100 125" enable-background="new 0 0 100 100" xml:space="preserve"><path d="M66.920166,25.1894741c-4.1083984-2.8530273-9.9501953-4.3598633-16.9199219-4.3598633  c-6.9711914,0-12.8134766,1.5068359-16.9204102,4.3598633c-4.9345703,1.3261719-15.6416016,5.1899414-15.0976563,13.6289082  c0.1245117,1.9077148,0.206543,4.0288086,0.2441406,6.3041992c0.0493164,2.9423828,1.6704102,5.3676758,4.0341797,6.0356445  c2.0170898,0.5683594,4.0537109-0.3061523,5.3149414-2.2866211l0.5776367-0.9057617  c0.4282227,0.9599609,0.9243164,1.8901367,1.4863281,2.7851563c-0.0073242,0.137207-0.0126953,0.2744141-0.0126953,0.4135742  c0,5.7666016,1.9968872,11.0300293,5.2700195,15.0020142C25.2918091,72.248497,18.7741699,83.9351425,18.7741699,97.330101  c0,0.828125,0.6713867,1.5,1.5,1.5s1.5-0.671875,1.5-1.5v-0.0004883  c0.0001831-12.5733032,6.1912842-23.5003662,15.2316895-28.9436035c3.5294189,3.2186279,8.0593872,5.1569824,12.9943848,5.1569824  c4.9348755,0,9.4646606-1.9384155,12.9938354-5.1571655c9.0404053,5.4431763,15.2315674,16.3703613,15.2317505,28.9437866v0.0004883  c0,0.828125,0.671875,1.5,1.5,1.5s1.5-0.671875,1.5-1.5c0-13.3951416-6.5178223-25.0819702-16.1228027-31.1637573  c3.2727051-3.9719238,5.2692871-9.2352905,5.2692871-15.00177c0-0.1391602-0.0048828-0.2768555-0.0126953-0.4135742  c0.5615234-0.8959961,1.0576172-1.8266602,1.4853516-2.7861328l0.578125,0.90625  c1.2607422,1.9799805,3.2958984,2.8583984,5.3154297,2.2871094c2.3642578-0.6679688,3.984375-3.09375,4.0332031-6.034668  c0.0400391-2.3237305,0.1201172-4.3862305,0.2460938-6.3061523C82.5617676,30.3789272,71.8547363,26.5151577,66.920166,25.1894741z   M79.0236816,38.6230698c-0.1279297,1.9672852-0.2109375,4.0766602-0.2519531,6.4501953  c-0.0302734,1.8466797-0.9794922,2.9521484-1.8486328,3.1977539c-0.7207031,0.2041016-1.4228516-0.1538086-1.9697266-1.012207  l-4.0019531-6.2749023l-0.9160156,3.203125c-0.5390625,1.8876953-1.3642578,3.6831055-2.4521484,5.3359375l-0.2636719,0.3999023  l0.0351563,0.8291016c0.0087891,0.1367188,0.0175781,0.2734375,0.0175781,0.4125977  c0,5.2476196-1.8867188,10.0075073-4.9344482,13.5004883c-0.3444824,0.3947754-0.7069702,0.7682495-1.0802002,1.1293335  c-0.397583,0.3845825-0.8112793,0.7468872-1.2391357,1.0905762c-2.8532104,2.2918091-6.3416748,3.65802-10.1182861,3.65802  c-3.7767334,0-7.2653809-1.3661499-10.1188354-3.6578979c-0.4279785-0.343689-0.8417358-0.7060547-1.2394409-1.0906982  c-0.37323-0.3610229-0.7356567-0.734375-1.0800781-1.1290894c-3.0481567-3.493042-4.9351807-8.2529907-4.9351807-13.5007324  c0-0.1357422,0.0087891-0.2685547,0.0170898-0.4018555l0.034668-0.8417969l-0.2626953-0.3989258  c-1.0874023-1.6499023-1.9130859-3.4448242-2.453125-5.3349609l-0.9160156-3.2041016l-4.0009766,6.2763672  c-0.5458984,0.8579102-1.2451172,1.2177734-1.9697266,1.0117188c-0.8691406-0.2456055-1.8193359-1.3510742-1.8496094-3.1982422  c-0.0385742-2.3237305-0.1230469-4.4936523-0.25-6.4487305c-0.4106445-6.3637695,9.0439453-9.5346699,13.1279297-10.602541  l0.2695313-0.0703125l0.2265625-0.1625977c3.6040039-2.5898438,8.9296875-3.9589844,15.3999023-3.9589844  c6.4697266,0,11.7939453,1.3691406,15.3994141,3.9589844l0.2255859,0.1625977l0.2695313,0.0703125  C69.9787598,29.0893764,79.4338379,32.2602768,79.0236816,38.6230698z M56.2687988,65.3896713  c0.0050049,0.0475464-0.0124512,0.09021-0.0130005,0.1368408c-0.0072632,0.5994263-0.4437866,1.1171875-1.0553589,1.1815186  c-0.4609375,0.0488281-0.8974609,0.0732422-1.3076172,0.0732422c-1.8069458,0-3.1079102-0.4758911-3.8930664-1.4096069  c-0.7851563,0.9335938-2.0861206,1.4086914-3.8935547,1.4096069c-0.4106445,0-0.8461914-0.0244141-1.3081055-0.0732422  c-0.6114502-0.0643311-1.0474854-0.5817871-1.0548706-1.1811523c-0.0005493-0.0467529-0.0180054-0.0895996-0.0130005-0.137207  c0.0698242-0.6591797,0.6669922-1.1396484,1.3188477-1.0683594c1.6586914,0.1757813,2.815918-0.0292969,3.1728516-0.5585938  c0.0926514-0.1373291,0.1375732-0.3117065,0.1555176-0.5008545c0.0057983-0.0606689,0.0067749-0.1231079,0.0064697-0.1867676  c-1.0825806-0.1781006-2.048645-0.5274658-2.810791-1.001709c-1.0959473-0.6820679-1.7736816-1.6149902-1.7736816-2.6453857  c0-2.0884399,2.776001-3.7814331,6.2003784-3.7814331s6.2003784,1.6929932,6.2003784,3.7814331  c0,1.0303345-0.6776733,1.9633179-1.7735596,2.6453247c-0.7619629,0.4742432-1.7278442,0.8236084-2.8102417,1.001709  c-0.0003662,0.0635986-0.000061,0.1262207,0.0056152,0.1867676c0.0178223,0.1907349,0.0637207,0.3659668,0.1575317,0.5038452  c0.3583984,0.5273438,1.5126953,0.7304688,3.1708984,0.5556641C55.5959473,64.2422104,56.2004395,64.7295151,56.2687988,65.3896713z   M37.5358887,48.5996323c-0.0297852,0-0.050293,0-0.0610352,0c-0.828125-0.0141602-1.4882813-0.6967773-1.4746094-1.5253906  c0.0141602-0.8266602,0.6606445-1.5024414,1.5209961-1.4746094c0.0004883,0,0.0029297,0,0.0058594,0  c0.1904297,0,4.3925781-0.0366211,6.3759766-2.7973633c0.4833984-0.6728516,1.4208984-0.8271484,2.0932617-0.3432617  c0.6728516,0.4833984,0.8266602,1.4204102,0.3432617,2.0932617C43.5227051,48.4736557,38.2023926,48.5996323,37.5358887,48.5996323z   M63.9963379,47.0791245c0.0117188,0.8266602-0.6455078,1.5063477-1.4716797,1.5205078c-0.0107422,0-0.03125,0-0.0615234,0  c-0.6650391,0-5.9853516-0.1254883-8.8027344-4.0473633c-0.4833984-0.6723633-0.3300781-1.6098633,0.3427734-2.0932617  c0.671875-0.4819336,1.609375-0.3305664,2.0927734,0.3432617c2.0244141,2.8173828,6.3222656,2.7963867,6.3828125,2.7973633  C63.3352051,45.6001205,63.9855957,46.2529526,63.9963379,47.0791245z M48.9416504,7.5503139  c0.3769531,0.0893555,0.7460938,0.1723633,1.1083984,0.2490234c-0.59375-0.0224609-1.2084961-0.0043945-1.8374023,0.0566406  c-1.081543,0.105957-1.9526367,0.855957-2.1674805,1.8666992c-0.2070313,0.9726563,0.237793,1.9296875,1.1328125,2.4384766  c1.1787109,0.6694336,2.6191406,1.0400391,4.28125,1.1010742c1.1201172,0.0361328,2.4072266-0.3203125,3.6142578-0.7739258  c0.0126953,0.0263672,0.0244141,0.0522461,0.0332031,0.078125c0.0214844,0.0605469,0.0878906,0.2456055-0.0957031,0.5595703  c-0.2529297,0.4326172-0.8056641,0.7993164-1.34375,0.8916016c-1.1181641,0.1899414-2.3076172-0.2211914-3.7451172-0.7827148  c-0.5205078-0.203125-1.1201172-0.0283203-1.434082,0.4375c-0.3139648,0.4643555-0.269043,1.0756836,0.1147461,1.484375  c0.0102539,0.0439453-0.0253906,0.2167969-0.168457,0.3652344c-0.0625,0.0649414-0.15625,0.1411133-0.2358398,0.1220703  c-0.6469727-0.1201172-1.2802734,0.2993164-1.4067383,0.949707c-0.1259766,0.6503906,0.2988281,1.2802734,0.949707,1.4067383  c0.1577148,0.0302734,0.3164063,0.0454102,0.4736328,0.0454102c0.9716797,0,1.90625-0.5664063,2.4257813-1.5078125  c0.0791016-0.1425781,0.1445313-0.2880859,0.1982422-0.4350586c0.9960938,0.2895508,2.1054688,0.4741211,3.2324219,0.2797852  c1.2451172-0.2128906,2.3984375-0.9970703,3.0117188-2.0458984c0.4824219-0.8256836,0.5830078-1.7412109,0.2832031-2.5791016  c-0.0244141-0.0678711-0.0507813-0.1337891-0.0791016-0.1982422l0.1367188-0.0605469  c1.3789063-0.6069336,2.5810547-1.8857422,2.9052734-3.3535156c0.9511719-0.1494141,1.9404297-0.3476563,2.9892578-0.5947266  c0.6455078-0.1513672,1.0458984-0.7973633,0.8935547-1.4428711s-0.8017578-1.0498047-1.4423828-0.8930664  c-0.9707031,0.2280273-1.8779297,0.4116211-2.7490234,0.5512695c-0.5996094-1.1708984-1.7480469-1.9038086-2.6074219-2.3710938  c-3.171875-1.7255858-6.9228516-2.4873047-10.5639648-2.1450195c-0.8710938,0.0820313-2.3291016,0.21875-2.9541016,1.7968749  c-0.2163086,0.5463867-0.1791992,1.1464844,0.1040039,1.6899414C44.9641113,6.5883999,48.7800293,7.512228,48.9416504,7.5503139z   M51.5471191,10.8637905c-1.1240234-0.0410156-2.0898438-0.2529297-2.890625-0.6376953  c1.4902344-0.1191406,2.8574219,0.0566406,4.0107422,0.5039063C52.2590332,10.8242397,51.8869629,10.8730679,51.5471191,10.8637905z   M57.5773926,8.4477749c-0.2900391,0.3583984-0.6933594,0.6669922-1.1201172,0.8549805L56.208252,9.4126186  c-0.1787109,0.0786133-0.3691406,0.1630859-0.5683594,0.2495117c-0.7802734-0.5947266-1.6787109-1.0532227-2.6689453-1.3676758  C54.5432129,8.4868374,56.0383301,8.5366421,57.5773926,8.4477749z M47.0739746,3.6396694  c3.1733398-0.3007813,6.4350586,0.3637695,9.1928711,1.8637695c0.3525391,0.1918945,0.6503906,0.3798828,0.8945313,0.565918  c-2.4472656,0.1142578-4.7832031-0.1704102-7.6650391-0.8540039c-1.3520508-0.3208008-2.7841797-1.0063477-3.2421875-1.4355469  C46.3635254,3.7265835,46.5842285,3.6855679,47.0739746,3.6396694z"/><text x="0" y="115" fill="#000000" font-size="5px" font-weight="bold" font-family="'Helvetica Neue', Helvetica, Arial-Unicode, Arial, Sans-serif">Created by Llisole</text><text x="0" y="120" fill="#000000" font-size="5px" font-weight="bold" font-family="'Helvetica Neue', Helvetica, Arial-Unicode, Arial, Sans-serif">from the Noun Project</text></svg>