<svg xmlns="http://www.w3.org/2000/svg" xmlns:xlink="http://www.w3.org/1999/xlink" version="1.1" x="0px" y="0px" viewBox="0 0 100 125" style="enable-background:new 0 0 100 100;" xml:space="preserve"><path d="M73.6,15.4c-4.1-2.9-9.9-4.4-16.9-4.4c-6.8,0-12.6,1.5-16.7,4.2c-1.8-0.2-4-0.8-6.1-1.4c-4.2-1.2-8.2-2.3-10.6-0.5  c-1.2,0.9-1.8,2.3-1.8,4.1c0,5.5,6.2,13.5,12.4,18.3c0.6,1.8,1.4,3.6,2.4,5.3c0,0.1,0,0.3,0,0.4c0,5.8,2,11,5.3,15  c-9.6,6.1-16.1,17.8-16.1,31.2c0,0.8,0.7,1.5,1.5,1.5c0.8,0,1.5-0.7,1.5-1.5c0,0,0,0,0,0c0-12.6,6.2-23.5,15.2-28.9  c3.5,3.2,8.1,5.2,13,5.2c4.9,0,9.5-1.9,13-5.2c9,5.4,15.2,16.4,15.2,28.9c0,0,0,0,0,0c0,0.8,0.7,1.5,1.5,1.5c0.8,0,1.5-0.7,1.5-1.5  c0-13.4-6.5-25.1-16.1-31.2c3.3-4,5.3-9.2,5.3-15c0-0.1,0-0.3,0-0.4c0.6-0.9,1.1-1.8,1.5-2.8l0.6,0.9c1.3,2,3.3,2.9,5.3,2.3  c2.4-0.7,4-3.1,4-6c0-2.3,0.1-4.4,0.2-6.3C89.2,20.5,78.5,16.7,73.6,15.4z M85.7,28.8c-0.1,2-0.2,4.1-0.3,6.4c0,1.8-1,3-1.8,3.2  c-0.7,0.2-1.4-0.2-2-1l-4-6.3l-0.9,3.2c-0.5,1.9-1.4,3.7-2.5,5.3L74,40.1l0,0.8c0,0.1,0,0.3,0,0.4c0,5.2-1.9,10-4.9,13.5  c-0.3,0.4-0.7,0.8-1.1,1.1c-0.4,0.4-0.8,0.7-1.2,1.1c-2.9,2.3-6.3,3.7-10.1,3.7c-3.8,0-7.3-1.4-10.1-3.7c-0.4-0.3-0.8-0.7-1.2-1.1  c-0.4-0.4-0.7-0.7-1.1-1.1c-3-3.5-4.9-8.3-4.9-13.5c0-0.1,0-0.3,0-0.4l0-0.8l-0.3-0.4c-1.1-1.6-1.9-3.4-2.5-5.3l-0.1-0.5l-0.4-0.3  c-5.6-4.2-11.6-11.7-11.6-16.1c0-0.9,0.2-1.5,0.6-1.8c0.3-0.2,0.8-0.3,1.5-0.3c1.7,0,4.3,0.7,6.5,1.4c2.5,0.7,5,1.4,7.2,1.5l0.5,0  l0.4-0.3c3.6-2.6,8.9-4,15.4-4s11.8,1.4,15.4,4l0.2,0.2l0.3,0.1C76.6,19.3,86.1,22.4,85.7,28.8z M48.2,35.8c-1.5,0-2.7-1.2-2.7-2.7  c0-1.5,1.2-2.7,2.7-2.7c1.5,0,2.7,1.2,2.7,2.7C51,34.6,49.8,35.8,48.2,35.8z M67.8,33.1c0,1.5-1.2,2.7-2.7,2.7  c-1.5,0-2.7-1.2-2.7-2.7c0-1.5,1.2-2.7,2.7-2.7C66.6,30.3,67.8,31.5,67.8,33.1z M64,53.8c0.1,0.2,0.2,0.4,0.2,0.6  c0,0.4-0.1,0.8-0.5,1c-0.1,0.1-0.3,0.2-0.4,0.3c-1.2,0.8-2.3,1.2-3.3,1.2c-0.5,0-1.1-0.1-1.6-0.3c-0.8-0.4-1.3-0.9-1.8-1.6  c-0.4,0.7-1,1.2-1.8,1.6c-0.5,0.2-1,0.3-1.6,0.3c-1,0-2.1-0.4-3.3-1.2c-0.1-0.1-0.3-0.2-0.4-0.3c-0.3-0.2-0.5-0.6-0.5-1  c0-0.2,0.1-0.4,0.2-0.6c0.4-0.5,1.1-0.7,1.7-0.3c0.2,0.1,0.3,0.2,0.5,0.3c0.8,0.5,1.7,0.8,2.3,0.5c0.4-0.2,0.7-0.5,0.9-1  c0-0.1,0.1-0.1,0.1-0.2c-1-0.2-2-0.5-2.7-1c-1.1-0.7-1.8-1.6-1.8-2.6c0-2.1,2.8-3.8,6.2-3.8s6.2,1.7,6.2,3.8c0,1-0.7,2-1.8,2.6  c-0.7,0.5-1.7,0.8-2.7,1c0,0.1,0.1,0.2,0.1,0.2c0.2,0.4,0.5,0.8,0.9,1c0.7,0.3,1.6-0.1,2.3-0.5c0.2-0.1,0.4-0.2,0.5-0.3  C62.8,53.2,63.6,53.3,64,53.8z M20.9,26.9L13,27.7c-0.1,0-0.1,0-0.2,0c-0.8,0-1.4-0.6-1.5-1.3c-0.1-0.8,0.5-1.6,1.3-1.6l7.9-0.8  c0.8-0.1,1.6,0.5,1.6,1.3C22.3,26.1,21.7,26.8,20.9,26.9z M24.7,32c0.5,0.7,0.3,1.6-0.4,2.1l-6.5,4.5c-0.3,0.2-0.6,0.3-0.9,0.3  c-0.5,0-0.9-0.2-1.2-0.6c-0.5-0.7-0.3-1.6,0.4-2.1l6.5-4.5C23.3,31.2,24.2,31.3,24.7,32z"/><text x="0" y="115" fill="#000000" font-size="5px" font-weight="bold" font-family="'Helvetica Neue', Helvetica, Arial-Unicode, Arial, Sans-serif">Created by Llisole</text><text x="0" y="120" fill="#000000" font-size="5px" font-weight="bold" font-family="'Helvetica Neue', Helvetica, Arial-Unicode, Arial, Sans-serif">from the Noun Project</text></svg>