<svg xmlns="http://www.w3.org/2000/svg" xmlns:xlink="http://www.w3.org/1999/xlink" version="1.1" x="0px" y="0px" viewBox="0 0 100 125" enable-background="new 0 0 100 100" xml:space="preserve"><path d="M71.9703522,59.8134575c-0.3007813-0.3554688-0.7578125-0.5498047-1.2177734-0.5302734  c-3.4306641,0.1640625-7.0644493,2.3310547-9.7412071,4.3525391c-4.2460938-2.4023438-10.0317383-5.0244141-15.0551758-5.0244141  c-6.2021484,0-13.203125,3.921875-16.1938496,6.7060509c-0.8369141,0.7792969-1.3168945,1.9228516-1.3164063,3.1357422  c0,1.2128906,0.4804688,2.3554688,1.3164063,3.1337891c2.989748,2.7851563,9.9907246,6.7070313,16.1938496,6.7070313  c5.0234375,0,10.809082-2.6220703,15.0551758-5.0244141c2.6767578,2.0205078,6.3115196,4.1875,9.7402306,4.3525391  c0.4814453,0.0224609,0.9179688-0.1738281,1.2177734-0.5302734c0.3017578-0.3564453,0.4199219-0.8330078,0.3193359-1.2890625  c-0.3378906-1.5400391-1.2167969-5.8632813-1.2255859-7.3417969c0.0087891-1.4951172,0.8876953-5.8183556,1.2255859-7.3583946  C72.3892975,60.6464653,72.2711334,60.1699028,71.9703522,59.8134575z M39.9638863,74.0871964  c0.7626343-1.4907227,1.0738525-3.656311,1.0738525-5.6350708c0-1.9785767-0.3110962-4.1435547-1.0735474-5.6339684  c2.0036011-0.7280884,4.0883179-1.2068481,5.9920044-1.2068481c4.7075195,0,10.4399414,2.7851524,14.4194336,5.1210899  c0.5371094,0.3134766,1.2099609,0.2666016,1.6962891-0.1220703c2.4755821-1.9775391,4.8300743-3.333004,6.8310509-3.9531212  c-0.3720703,1.8886681-0.8320313,4.4824181-0.8398438,5.8037071c0.0078125,1.3105469,0.4677734,3.8994141,0.8398438,5.7861328  c-2.0009766-0.6201172-4.3554688-1.9755859-6.8320274-3.9521484c-0.4853516-0.3886719-1.1582031-0.4355469-1.6953125-0.1220703  c-3.9794922,2.3359375-9.7119141,5.1210938-14.4194336,5.1210938  C44.0522652,75.2939224,41.9674263,74.8152847,39.9638863,74.0871964z M31.8067799,69.3915787  c-0.2260742-0.2109375-0.3608398-0.5615234-0.3608398-0.9384766c0-0.3779297,0.1347656-0.7294922,0.3608398-0.9404297  c1.1916523-1.109314,3.1374531-2.4086304,5.3784199-3.5065308c0.3410034,0.5154419,0.8525391,2.1068115,0.8525391,4.4459839  c0,2.5158691-0.5473022,3.9772949-0.8538208,4.4464722C34.9433784,71.8006363,32.9980659,70.5011978,31.8067799,69.3915787z   M89.3830109,27.2683506c3.708374-3.12677,5.3406372-6.2299194,4.7445679-9.1536255  c-1.9755859-9.6860342-26.390625-10.150878-48.3647423-5.671874c-11.855957,2.4169922-22.7319355,6.1147451-30.6245117,10.4116201  c-8.5150757,4.6362305-12.546814,9.3876972-11.6591187,13.7412128c0.1347046,0.6607056,0.3894653,1.2718506,0.7250977,1.8480835  v36.648983c0,9.8701172,23.793396,15.1953125,46.180603,15.1953125s46.1811485-5.3251953,46.1811485-15.1953125V36.6705742  c0.048584-0.3087769,0.0751953-0.6218872,0.0751953-0.9401245C96.6412506,32.3744316,93.8891144,29.5445957,89.3830109,27.2683506z   M7.2043028,75.0927505V41.4804497c7.1408081,6.1856689,25.5916138,9.46875,43.180603,9.46875  c17.5897789,0,36.0407066-3.2832642,43.1811485-9.4691772v33.6127281c0,5.7685547-17.7333984,12.1953125-43.1811485,12.1953125  C24.9381275,87.288063,7.2043028,80.8613052,7.2043028,75.0927505z M16.5728931,25.4892368  c0.5661011-0.3081665,1.1532593-0.6121216,1.7508545-0.9138184c7.4658203-3.7686157,17.3240986-7.008606,28.0386982-9.1931143  c9.1557617-1.8666992,17.4672852-2.6777344,24.3803673-2.6777344c11.9453125,0,19.7138672,2.4228516,20.4453125,6.0097647  c0.4044189,1.9830933-1.3814087,4.5268555-4.9046631,7.1796875c-0.4685059,0.3527832-0.965332,0.7070923-1.4945679,1.0627441  c-0.5059204,0.3399048-1.0401001,0.6803589-1.5997314,1.0209351c-0.6821289,0.4152222-1.3963623,0.8303223-2.1553345,1.2434692  c-0.9807129,0.5339966-2.0114746,1.0582275-3.085083,1.5720215c-4.4389038,2.1244526-9.6398315,4.0619526-15.3043785,5.7186909  c-3.6350708,1.0631714-7.4576416,2.0125732-11.4000854,2.8162231c-16.6261597,3.3894653-30.4600849,3.2965698-38.1980591,1.1869507  c-1.822876-0.4969482-3.305542-1.1055908-4.4074707-1.8075562c-0.4318848-0.2751465-0.8052368-0.564209-1.1171265-0.8667603  c-0.5889282-0.5713501-0.9689331-1.187439-1.1029663-1.8446655c-0.3621216-1.7754517,1.029541-4.0006123,3.8533325-6.3513203  C11.9104795,28.2808018,14.0280943,26.8747959,16.5728931,25.4892368z M93.6380157,35.7646904  c-0.0023804,0.1968384-0.0288696,0.3944092-0.0719604,0.5924072c-0.4669189,2.1451416-3.2952271,4.3447876-7.9911499,6.2439575  c1.8339233-1.2946777,2.8519287-2.7119141,2.8519287-4.1986694c0-0.8561401-0.3464966-1.6882324-0.9811401-2.4884033  c-1.0736694-1.3536377-2.9955444-2.612854-5.607666-3.725647c0.2093506-0.1109619,0.4250488-0.220583,0.6303711-0.3323994  c1.5485229-0.8429565,2.9443359-1.6898193,4.1936646-2.5373535c4.4755249,1.9800415,6.979187,4.2424335,6.979187,6.4118671  C93.6412506,35.7418022,93.6381378,35.7533379,93.6380157,35.7646904z"/><text x="0" y="115" fill="#000000" font-size="5px" font-weight="bold" font-family="'Helvetica Neue', Helvetica, Arial-Unicode, Arial, Sans-serif">Created by Llisole</text><text x="0" y="120" fill="#000000" font-size="5px" font-weight="bold" font-family="'Helvetica Neue', Helvetica, Arial-Unicode, Arial, Sans-serif">from the Noun Project</text></svg>