<svg xmlns="http://www.w3.org/2000/svg" xmlns:xlink="http://www.w3.org/1999/xlink" version="1.1" x="0px" y="0px" viewBox="0 0 100 125" enable-background="new 0 0 100 100" xml:space="preserve"><path d="M66.920929,12.7150879c-4.1083946-2.8530273-9.9501915-4.3598633-16.9208946-4.3598633  s-12.8129883,1.5068359-16.9199219,4.3598633c-4.9345703,1.3266602-15.6416016,5.1914063-15.0976563,13.6289063  c0.1245117,1.9174805,0.206543,4.0380859,0.2441406,6.3041992c0.0493164,2.9423828,1.6704102,5.3676758,4.0341797,6.0356445  c2.015625,0.5698242,4.0541992-0.3061523,5.3154297-2.2861328l0.5771484-0.9057617  c0.4282227,0.9599609,0.9248047,1.8901367,1.4863281,2.7851563c-0.0073242,0.1367188-0.0126953,0.2739258-0.0126953,0.4130859  c0,5.7667236,1.9966431,11.0303345,5.2695313,15.0023804c-9.6049194,6.0817261-16.1225586,17.7681885-16.1225586,31.163147  c0,0.828125,0.6713867,1.5,1.5,1.5s1.5-0.671875,1.5-1.5c0-0.0001221,0-0.0002441,0-0.0003662  c0.000061-12.5734253,6.1911621-23.5001831,15.2315674-28.9432983c3.5293579,3.2189331,8.0593872,5.1575317,12.9945068,5.1575317  c4.9348755,0,9.4648438-1.9385376,12.9942627-5.1574707c9.0402184,5.4431152,15.2312584,16.369873,15.2313194,28.9432373  c0,0.0001221,0,0.0002441,0,0.0003662c0,0.828125,0.671875,1.5,1.5,1.5s1.5-0.671875,1.5-1.5  c0-13.3948975-6.5175781-25.0812988-16.1223145-31.1630249c3.2729492-3.9721069,5.2697754-9.2357788,5.2697754-15.0025024  c0-0.1391602-0.0058594-0.2763672-0.0126953-0.4130859c0.5615234-0.8955078,1.0576172-1.8266602,1.4853516-2.7866211  l0.5791016,0.9072266c1.2607422,1.9799805,3.2978516,2.855957,5.3144531,2.2861328  c2.3642578-0.668457,3.984375-3.0942383,4.0322266-6.034668c0.0390625-2.2729492,0.1220703-4.394043,0.2460938-6.3056641  C82.5605774,17.9069824,71.8545227,14.041748,66.920929,12.7150879z M79.023468,26.1496582  c-0.1269531,1.9584961-0.2119141,4.1274414-0.2519531,6.4492188c-0.0292969,1.8466797-0.9785156,2.9521484-1.8476563,3.1977539  c-0.7197266,0.2036133-1.4228516-0.1533203-1.9697266-1.0117188l-4.0039063-6.2749023l-0.9150391,3.2026367  c-0.5400391,1.8901367-1.3642578,3.6850586-2.4511719,5.3359375l-0.2617188,0.3974609l0.015625,0.4755859  c0.0039063,0.1245117,0.0107422,0.2480469,0.0185547,0.371582c0.0078125,0.1313477,0.0166016,0.2631836,0.0166016,0.3969727  c0,5.2480469-1.8869019,10.0080566-4.9348106,13.5011597c-0.3443604,0.3947144-0.7067261,0.7680054-1.079895,1.1290283  c-0.397644,0.3847046-0.8115234,0.7470703-1.239502,1.0908813c-2.8534546,2.2919922-6.3421631,3.6583252-10.1188354,3.6583252  c-3.7769165,0-7.265686-1.366333-10.1190796-3.6583252c-0.4279785-0.343811-0.8417969-0.7061157-1.2394409-1.0908203  c-0.3731689-0.3609619-0.7355957-0.734436-1.0799561-1.1291504c-3.0478516-3.493103-4.9345703-8.2530518-4.9345703-13.5010986  c0-0.1352539,0.0087891-0.2680664,0.0170898-0.4013672l0.034668-0.8422852L32.41605,37.0476074  c-1.0874023-1.6489258-1.9130859-3.4443359-2.4536133-5.3354492l-0.9165039-3.2041016l-4,6.2773438  c-0.5458984,0.8564453-1.2456055,1.215332-1.9692383,1.0112305c-0.8696289-0.2456055-1.8198242-1.3510742-1.8500977-3.1982422  c-0.0385742-2.3139648-0.1225586-4.4833984-0.25-6.4482422c-0.4106445-6.362793,9.0439453-9.534668,13.1279297-10.6030273  l0.2695313-0.0703125l0.2265625-0.1625977c3.6040039-2.5898438,8.9291992-3.9589844,15.3994141-3.9589844  c6.4697266,0,11.7949219,1.3691406,15.4003868,3.9589844l0.2255859,0.1625977l0.2695313,0.0703125  C69.9795227,16.6154785,79.4336243,19.7873535,79.023468,26.1496582z M41.5917702,33.1514282  c-1.5117798,0-2.7373657-1.2255249-2.7373657-2.7373657c0-1.5117798,1.2255859-2.7373657,2.7373657-2.7373657  c1.5118408,0,2.7373657,1.2255859,2.7373657,2.7373657C44.3291359,31.9259033,43.103611,33.1514282,41.5917702,33.1514282z   M61.1454811,30.4140625c0,1.5118408-1.2255859,2.7373657-2.7373657,2.7373657s-2.7373657-1.2255249-2.7373657-2.7373657  c0-1.5117798,1.2255859-2.7373657,2.7373657-2.7373657S61.1454811,28.9022827,61.1454811,30.4140625z M57.3086281,51.2028809  c0.1364136,0.1928101,0.1862183,0.4119263,0.1973267,0.6315918c0.0200195,0.3967285-0.1352539,0.7948608-0.4834595,1.0412598  c-0.1442871,0.1021729-0.2827759,0.1771851-0.4246826,0.2683716c-1.1695557,0.7512817-2.2641602,1.1495972-3.2647705,1.1495972  c-0.546875,0-1.0673828-0.112793-1.5595703-0.3388672c-0.765686-0.3517456-1.3390503-0.9354248-1.7735596-1.5916748  c-0.4343872,0.656189-1.0076904,1.2398071-1.7733154,1.5916748c-0.4916992,0.2260742-1.0126953,0.3388672-1.5600586,0.3388672  c-1.0001221,0-2.0950317-0.3983154-3.2649536-1.1494751c-0.1420288-0.0911865-0.2806396-0.1662598-0.4249878-0.2684937  c-0.3479004-0.2463989-0.5031128-0.6446533-0.4828491-1.0411987c0.0112305-0.2196045,0.0610962-0.4385376,0.1976929-0.6311646  c0.3833008-0.5410156,1.1328125-0.668457,1.6723633-0.2856445c0.1592407,0.1126709,0.3328247,0.2247314,0.5112305,0.3330688  c0.7722778,0.4688721,1.6784058,0.8331909,2.3491211,0.5233765c0.3672485-0.1687012,0.6657104-0.5316772,0.9086914-0.96521  c0.0420532-0.0749512,0.0827026-0.1495361,0.1211548-0.2285156c-1.0301514-0.1842041-1.9487305-0.5258789-2.6804199-0.9810791  c-1.0961914-0.6820679-1.7740479-1.6151123-1.7740479-2.6456299c0-2.0884399,2.776001-3.7814331,6.2004395-3.7814331  c3.4243774,0,6.2003784,1.6929932,6.2003784,3.7814331c0,1.0305176-0.6778564,1.963623-1.7740479,2.6456299  c-0.7330322,0.4561157-1.6537476,0.7980957-2.6862183,0.9819946c0.0384521,0.0796509,0.0829468,0.1515503,0.1253052,0.227417  c0.2398071,0.4293213,0.536438,0.7947998,0.9129639,0.9668579c0.6733398,0.3065186,1.5767212-0.0567017,2.3468628-0.5247803  c0.1781616-0.1082764,0.3514404-0.2203979,0.5105591-0.3331299C56.1738625,50.5339355,56.9238625,50.661377,57.3086281,51.2028809z   M68.823822,84.8553467l-2.6685181-9.2183838c-0.4306641-1.4873047-1.8134766-2.5263672-3.3613243-2.5263672h-1.3757935  c-1.8963013-3.5454102-6.2937012-6.4335938-11.4182129-6.4335938c-5.1245728,0-9.5219727,2.8881836-11.4182739,6.4335938h-1.3751221  c-1.5488281,0-2.9316406,1.0390625-3.3623047,2.5273438l-2.6688232,9.2174072l-0.6705322,2.3157959  c-0.3085938,1.0673828-0.1030273,2.1884766,0.5644531,3.0771484c0.6674805,0.8876953,1.6870117,1.3964844,2.7973633,1.3964844  H66.132843c1.1113281,0,2.1308594-0.5097656,2.7988281-1.3984375c0.6669922-0.8876953,0.8720703-2.0087891,0.5625-3.0751953  L68.823822,84.8553467z M33.4673195,88.4455566c-0.0561523-0.0751953-0.1411133-0.2314453-0.0805664-0.4404297l0.9119873-3.1497803  l2.4273682-8.3834229c0.0615234-0.2128906,0.2592773-0.3613281,0.4804688-0.3613281h0.427002h24.7327271h0.4276733  c0.2207031,0,0.4179688,0.1484375,0.4804688,0.3613281l2.426815,8.3834229l0.9120483,3.1507568  c0.0605469,0.2080078-0.0244141,0.3642578-0.0800781,0.4384766c-0.0566406,0.0751953-0.1826172,0.2001953-0.4003906,0.2001953  H33.8667336C33.6499367,88.6447754,33.5234718,88.5197754,33.4673195,88.4455566z M61.0529518,80.9564209  c-0.0594482,0.5386963-0.2756348,1.0281982-0.6087036,1.4215088c0.3904419,0.4609985,0.6347046,1.0497437,0.6347046,1.7011719  c0,0.2720337-0.0529175,0.5292358-0.1291504,0.7762451c-0.333374,1.0800171-1.3275146,1.8700562-2.5171509,1.8700562  c-1.1881714,0-2.1814575-0.788269-2.5160522-1.8664551h-0.1514282H44.2347755h-0.1514893  c-0.3345947,1.078186-1.3278809,1.8664551-2.5160522,1.8664551c-1.1896362,0-2.1837769-0.7900391-2.5171509-1.8700562  c-0.0762329-0.2470093-0.1291504-0.5042114-0.1291504-0.7762451c0-0.6514282,0.2442627-1.2401733,0.6347046-1.7011719  c-0.3330688-0.3933105-0.5492554-0.8827515-0.6087036-1.4215698c-0.0102539-0.0927734-0.026001-0.1838989-0.026001-0.2796021  c0-1.4615479,1.1846313-2.6463013,2.6463013-2.6463013c1.1881714,0,2.1814575,0.788269,2.5160522,1.866394h11.833313  c0.3345947-1.078125,1.3278809-1.866394,2.5160522-1.866394c1.4616699,0,2.6463013,1.1847534,2.6463013,2.6463013  C61.0789528,80.772522,61.0632057,80.8635864,61.0529518,80.9564209z"/><text x="0" y="115" fill="#000000" font-size="5px" font-weight="bold" font-family="'Helvetica Neue', Helvetica, Arial-Unicode, Arial, Sans-serif">Created by Llisole</text><text x="0" y="120" fill="#000000" font-size="5px" font-weight="bold" font-family="'Helvetica Neue', Helvetica, Arial-Unicode, Arial, Sans-serif">from the Noun Project</text></svg>