<svg xmlns="http://www.w3.org/2000/svg" xmlns:xlink="http://www.w3.org/1999/xlink" version="1.1" x="0px" y="0px" viewBox="0 0 100 125" enable-background="new 0 0 100 100" xml:space="preserve"><path d="M68.4394531,12.2556152C63.9716797,9.1433105,57.6035156,7.5002441,50,7.5002441  c-7.6044922,0-13.9716797,1.6430664-18.4394531,4.7553711c-5.3505859,1.4345703-17.015625,5.6259766-16.4267578,14.7626953  c0.1367188,2.0976563,0.2265625,4.4189453,0.2670898,6.8994141c0.0527344,3.1547852,1.7841797,5.7539063,4.309082,6.4667969  c2.140625,0.6049805,4.3095703-0.3300781,5.6547852-2.4404297l0.7719727-1.2114258  c0.4946289,1.1420898,1.0776367,2.246582,1.7451172,3.3051758c-0.0092773,0.1616211-0.0161133,0.3237305-0.0161133,0.4882813  c0,6.3295898,2.2120361,12.1005859,5.8291016,16.4326782c-10.5360107,6.5997314-17.6953125,19.3826904-17.6953125,34.0409546  c0,0.828125,0.6713867,1.5,1.5,1.5c0.8284912,0,1.4996948-0.6716309,1.499939-1.4996338  c0-0.0001221,0.000061-0.0002441,0.000061-0.0003662c0-13.8396606,6.8381348-25.8612671,16.8126221-31.8185425  C39.6567383,62.7193604,44.6049805,64.854248,50,64.854248s10.3432007-2.1348877,14.1877441-5.6730957  C74.1621704,65.1384277,81,77.1600952,81,90.9997559C81,90.9998779,81.000061,91,81.000061,91.0001221  c0.0002441,0.8280029,0.671936,1.4996338,1.499939,1.4996338c0.828125,0,1.5-0.671875,1.5-1.5  c0-14.6583252-7.1591797-27.4412842-17.6950684-34.0410156c3.6168823-4.3320923,5.8288574-10.1030273,5.8288574-16.4326172  c0-0.1645508-0.0068359-0.3266602-0.015625-0.4882813c0.6660156-1.0600586,1.2490234-2.1650391,1.7431641-3.3066406  l0.7734375,1.2124023c1.3447266,2.1118164,3.5117188,3.0463867,5.6552734,2.440918  c2.5244141-0.7138672,4.2558594-3.3125,4.3066406-6.465332c0.0449219-2.5478516,0.1328125-4.8051758,0.2695313-6.9013672  C85.4550781,17.8815918,73.7900391,13.6901855,68.4394531,12.2556152z M81.8720703,26.8234863  c-0.1396484,2.1435547-0.2294922,4.4472656-0.2753906,7.0449219c-0.0332031,2.0908203-1.1240234,3.3466797-2.1220703,3.6289063  c-0.8583984,0.2446289-1.6757813-0.1713867-2.3095703-1.1660156l-4.2089844-6.597168l-0.9160156,3.2011719  c-0.5947266,2.0791016-1.5029297,4.0551758-2.6982422,5.8735352l-0.2617188,0.3974609l0.015625,0.4755859  c0.0039063,0.1333008,0.0117188,0.2651367,0.0195313,0.3964844c0.0087891,0.1484375,0.0185547,0.296875,0.0185547,0.4477539  c0,5.8137207-2.1026611,11.0859375-5.498291,14.9369507c-0.3452148,0.3914795-0.7106323,0.7589722-1.0818481,1.1200562  c-0.395752,0.3849487-0.8071289,0.7479248-1.2304688,1.0961304C58.1481934,60.2904663,54.2396851,61.854248,50,61.854248  c-4.239624,0-8.1482544-1.5637817-11.3233032-4.1749878c-0.4234009-0.3482056-0.8347778-0.7111816-1.2305908-1.0961914  c-0.3712158-0.3610229-0.7366333-0.7285156-1.0817871-1.1199341c-3.395813-3.8510132-5.4985962-9.123291-5.4985962-14.9370117  c0-0.1499023,0.0097656-0.2973633,0.0185547-0.4448242c0.0078125-0.1328125,0.015625-0.2651367,0.0200195-0.3994141  l0.015625-0.4765625l-0.262207-0.3979492c-1.1967773-1.8154297-2.1054688-3.7910156-2.7001953-5.8720703l-0.9165039-3.2036133  l-4.206543,6.6005859c-0.6323242,0.9926758-1.4506836,1.4077148-2.309082,1.1655273  c-0.9990234-0.2822266-2.0898438-1.5385742-2.1245117-3.6298828c-0.0419922-2.5283203-0.1337891-4.8984375-0.2729492-7.043457  c-0.4555664-7.0615234,9.9589844-10.5600586,14.4575195-11.7368164l0.2695313-0.0703125l0.2265625-0.1625977  C37.0458984,12.0061035,42.8964844,10.5002441,50,10.5002441s12.9541016,1.5058594,16.9189453,4.3544922l0.2255859,0.1625977  l0.2695313,0.0703125C71.9130859,16.263916,82.3271484,19.7629395,81.8720703,26.8234863z M40.8069458,34.470459  c-1.6529541,0-2.9928589-1.3399048-2.9928589-2.9928589c0-1.6528931,1.3399048-2.9928589,2.9928589-2.9928589  c1.6528931,0,2.9928589,1.3399658,2.9928589,2.9928589C43.7998047,33.1305542,42.4598389,34.470459,40.8069458,34.470459z   M62.1856689,31.4776001c0,1.6529541-1.3399658,2.9928589-2.9928589,2.9928589  c-1.6529541,0-2.9928589-1.3399048-2.9928589-2.9928589c0-1.6528931,1.3399048-2.9928589,2.9928589-2.9928589  C60.8457031,28.4847412,62.1856689,29.824707,62.1856689,31.4776001z M57.8994141,54.2722168  c0.1279297,0.1808472,0.1789551,0.3848267,0.1964111,0.5905762c0.0348511,0.4098511-0.1223755,0.8267822-0.4825439,1.0822754  c-0.1306763,0.0925293-0.2556763,0.1588135-0.3845215,0.242981c-1.2885742,0.8412476-2.4904785,1.2853394-3.5842285,1.2853394  c-0.5830078,0-1.1367188-0.1191406-1.6591797-0.359375c-0.8687744-0.3994141-1.5112305-1.0772705-1.9855347-1.8348999  c-0.4743652,0.7576294-1.1168823,1.4354858-1.9856567,1.8348999c-0.5224609,0.2402344-1.0761719,0.359375-1.6586914,0.359375  c-1.093689,0-2.2955933-0.4440918-3.5844727-1.2852783c-0.1289673-0.0841675-0.2539673-0.1505127-0.3847656-0.243042  c-0.3599243-0.2555542-0.5170288-0.6724854-0.4819336-1.0823975c0.0175781-0.2056885,0.0686646-0.409668,0.1967773-0.5904541  c0.3833008-0.5400391,1.1323242-0.6669922,1.6728516-0.2861328c0.1453857,0.1030273,0.3016968,0.2054443,0.4622803,0.3059082  c0.8894653,0.5565186,1.9681396,1.0103149,2.7755127,0.6413574c0.4551392-0.2089844,0.8087769-0.6526489,1.0869141-1.1695557  c0.0390625-0.0725708,0.0777588-0.1432495,0.1136475-0.2185669c-1.0861206-0.1808472-2.0618896-0.5209961-2.8577271-0.9786377  c-1.3109741-0.7539063-2.1337891-1.8200073-2.1337891-3.0056152c0-2.2833252,3.0350952-4.1343384,6.7791138-4.1343384  c3.7439575,0,6.7791138,1.8510132,6.7791138,4.1343384c0,1.1856079-0.8228149,2.2516479-2.1337891,3.0055542  c-0.7946777,0.4569702-1.7686768,0.796814-2.8528442,0.9779663c0.0360107,0.0756226,0.0745239,0.1468506,0.1136475,0.2197266  c0.2784424,0.5186768,0.6315918,0.9630127,1.0842285,1.170105c0.8096313,0.3671875,1.8861694-0.0863647,2.7739868-0.6421509  c0.1605835-0.1005249,0.3169556-0.203064,0.4623413-0.3060913C56.7636719,53.604248,57.515625,53.7302246,57.8994141,54.2722168z"/><text x="0" y="115" fill="#000000" font-size="5px" font-weight="bold" font-family="'Helvetica Neue', Helvetica, Arial-Unicode, Arial, Sans-serif">Created by Llisole</text><text x="0" y="120" fill="#000000" font-size="5px" font-weight="bold" font-family="'Helvetica Neue', Helvetica, Arial-Unicode, Arial, Sans-serif">from the Noun Project</text></svg>