<svg xmlns="http://www.w3.org/2000/svg" xmlns:xlink="http://www.w3.org/1999/xlink" version="1.1" x="0px" y="0px" viewBox="0 0 100 125" enable-background="new 0 0 100 100" xml:space="preserve"><path d="M81.75,48.0985374c0.6630859,0,1.2001953-0.5375977,1.2001953-1.2001953S82.4130859,45.6981468,81.75,45.6981468h-4.5513916  c0.2563477-1.220459,0.3970947-2.4723511,0.3970947-3.7509766c0-0.2634888-0.0251465-0.5238647-0.0363159-0.7860107  l3.6798706-0.9747314c0.640625-0.1699219,1.0224609-0.8266602,0.8525391-1.4672852  c-0.1699219-0.6401367-0.8212891-1.0209961-1.4677734-0.8530273l-3.3163452,0.878418  c-0.3775635-2.1347656-1.1399536-4.1982422-2.253479-6.1474609l1.8178711-19.9526348  c0.0898438-0.9916992-0.3896484-1.9379883-1.2529297-2.4692383c-0.8896484-0.546875-2.0361328-0.5600586-2.9550781-0.0390625  l-12.6690674,5.5936279C56.9401855,14.4810467,53.5462646,13.7762737,50,13.7762737s-6.9401855,0.7047119-9.9949951,1.9533691  l-12.6695557-5.5939941c-0.918457-0.519043-2.0649414-0.5083008-2.9550781,0.0400391  c-0.8632813,0.53125-1.3432617,1.4770508-1.2524414,2.46875L24.946106,32.595974  c-1.1139526,1.949707-1.8765869,4.0135498-2.2542114,6.1486206l-3.3164063-0.878479  c-0.6391602-0.1699219-1.2978516,0.2119141-1.4672852,0.8530273c-0.1694336,0.640625,0.2124023,1.2973633,0.8530273,1.4672852  l3.678894,0.9744873c-0.0111694,0.262207-0.0363159,0.522644-0.0363159,0.7862549  c0,1.2786255,0.1407471,2.5305176,0.3970947,3.7509766H18.25c-0.6625977,0-1.2001953,0.5375977-1.2001953,1.2001953  S17.5874023,48.0985374,18.25,48.0985374h5.2272339c0.460022,1.2964478,1.0585938,2.5453491,1.7872314,3.7341309  l-6.7078247,1.7766113c-0.640625,0.1699219-1.0224609,0.8271484-0.8530273,1.4677734  c0.1425781,0.5371094,0.6279297,0.8925781,1.1591797,0.8925781c0.1020508,0,0.2050781-0.0126953,0.3081055-0.0400391  l7.5591431-2.0023193c1.5825195,2.0053711,3.5448608,3.7959595,5.8120728,5.2984619  c-8.3011475,6.4088783-13.7681885,17.2495155-13.7681885,29.5192909c0,0.828125,0.6713867,1.5,1.5,1.5  c0.8284912,0,1.4998169-0.671814,1.499939-1.4996948c0-0.0001221,0.000061-0.0001831,0.000061-0.0003052  c0-11.7974854,5.4477539-22.1523438,13.588623-27.8817177C39.6087646,63.0222435,44.6254883,64.2762756,50,64.2762756  s10.3911133-1.2540321,14.637207-3.4129066c8.140686,5.7293739,13.5883789,16.0841713,13.5883789,27.8816566  c0,0.0001221,0.000061,0.0001831,0.000061,0.0003052c0.0001221,0.8278809,0.671936,1.4996948,1.499939,1.4996948  c0.828125,0,1.5-0.671875,1.5-1.5c0-12.2697754-5.467041-23.1104126-13.7680054-29.5192299  c2.2671509-1.5025024,4.2294312-3.2930298,5.8119507-5.2984619l7.5585938,2.0022583  c0.1035156,0.0273438,0.2070313,0.0400391,0.3085938,0.0400391c0.53125,0,1.0166016-0.3554688,1.1591797-0.8925781  c0.1699219-0.640625-0.2119141-1.2978516-0.8525391-1.4677734l-6.7081299-1.7767944  c0.7285767-1.1887817,1.3271484-2.437561,1.7871094-3.7339478H81.75z M63.25,48.0985374h10.0612793  c-0.4356079,1.0168457-0.9725342,1.9971313-1.6077881,2.9309082l-7.9407959-2.1032715  c-0.6425781-0.1689453-1.2978516,0.2128906-1.4677734,0.8530273c-0.1699219,0.640625,0.2119141,1.2973633,0.8525391,1.4667969  l6.9370728,1.8376465c-1.4747314,1.6377563-3.2609253,3.0899658-5.296814,4.2976685  c-0.4927368,0.2922974-1.0025635,0.5671387-1.5230713,0.8302002c-0.5528564,0.2794189-1.1184692,0.5441895-1.7002563,0.7888184  C58.1148071,60.4508934,54.1783447,61.2762718,50,61.2762718c-4.1784058,0-8.1149292-0.8254395-11.5645752-2.276001  c-0.5817871-0.2446289-1.1474609-0.5092773-1.7002563-0.7886963c-0.5205688-0.2631226-1.0303955-0.5380249-1.5231934-0.8303223  c-2.0358887-1.2077026-3.8220825-2.6599731-5.296814-4.2976685l6.9373779-1.8375854  c0.640625-0.1694336,1.0224609-0.8261719,0.8530273-1.4667969c-0.1704102-0.6416016-0.8291016-1.0234375-1.4672852-0.8530273  l-7.9420166,2.1035156c-0.635376-0.9338379-1.1722412-1.9142456-1.6079712-2.9311523H36.75  c0.6625977,0,1.2001953-0.5375977,1.2001953-1.2001953S37.4125977,45.6981468,36.75,45.6981468H25.8726196  c-0.3051147-1.2140503-0.468811-2.4675903-0.468811-3.7509766c0-0.0004272,0.000061-0.0007935,0.000061-0.0012207  l11.0390015,2.9240723c0.1030273,0.0273438,0.2060547,0.0400391,0.3081055,0.0400391  c0.5307617,0,1.0166016-0.3554688,1.1591797-0.8930664c0.1694336-0.640625-0.2124023-1.2973633-0.8530273-1.4672852  l-11.4438477-3.031311c0.0357056-0.2223511,0.0681152-0.4448853,0.1135864-0.6656494  c0.22052-1.0704956,0.5633545-2.1186523,1.0091553-3.1409912c0.4169922-0.9562378,0.9317017-1.8860474,1.5397949-2.7850342  c0.4523926-0.6687622,0.9408569-1.3251324,1.4961548-1.9551373l0.2451172-0.277832l0.0869141-0.3603516  c1.1905518-4.9087524,4.9046631-8.9763794,9.871582-11.3374023c0.6194458-0.2944336,1.2641602-0.5523071,1.920105-0.7919922  c0.7102051-0.2595215,1.4412842-0.4821777,2.1882935-0.6734009C45.9679565,17.0483685,47.9521484,16.7762737,50,16.7762737  c2.0479126,0,4.0321655,0.2721558,5.9160767,0.7543945c0.7470093,0.1911621,1.4779053,0.4138184,2.1881104,0.6733398  c0.6560059,0.2397461,1.3008423,0.4976807,1.9204102,0.7921753c4.9661255,2.3609619,8.6794434,6.4282227,9.8699341,11.336731  l0.0878906,0.3603516l0.2451172,0.277832c0.5551147,0.6298828,1.0435181,1.2861309,1.4957886,1.954771  c0.6083984,0.8994141,1.1233521,1.8297729,1.5404663,2.7865601c0.4455566,1.0219727,0.7883301,2.0698242,1.0087891,3.1399536  c0.0455322,0.2208252,0.0779419,0.4435425,0.1136475,0.6660156l-11.4438477,3.031311  c-0.640625,0.1699219-1.0224609,0.8266602-0.8525391,1.4672852c0.1425781,0.5375977,0.6279297,0.8930664,1.1591797,0.8930664  c0.1015625,0,0.2050781-0.0126953,0.3085938-0.0400391l11.0380249-2.9238281c0,0.0003052,0.000061,0.0006714,0.000061,0.0009766  c0,1.2833862-0.1636963,2.5369263-0.46875,3.7509766H63.25c-0.6630859,0-1.2001953,0.5375977-1.2001953,1.2001953  S62.5869141,48.0985374,63.25,48.0985374z M27.5717773,28.3536663l-1.4086914-15.4558105l10.3729248,4.5795898  C32.2636108,20.0717449,29.0308228,23.8691082,27.5717773,28.3536663z M72.4275513,28.3540325  c-1.4586792-4.4846191-4.6914063-8.2819824-8.9637451-10.8764038l10.3721313-4.5797729L72.4275513,28.3540325z   M43.0717773,34.8597679c-1.2802734-0.8408203-5.0991211-0.0717773-7.402832,0.7412109  c-0.1318359,0.046875-0.2670898,0.0688477-0.3994141,0.0688477c-0.4946289,0-0.9575195-0.3081055-1.1313477-0.8007813  c-0.2207031-0.625,0.1069336-1.3105469,0.7319336-1.5307617c1.1132813-0.3935547,6.809082-2.2661114,9.519043-0.484375  c0.5541992,0.3637695,0.7080078,1.1079102,0.3442383,1.6616211C44.3691406,35.0692406,43.625,35.2230492,43.0717773,34.8597679z   M64.3320313,35.6014671c-2.3066406-0.8120117-6.1298828-1.5795898-7.4033203-0.7416992  c-0.5537109,0.362793-1.2978516,0.2109375-1.6621094-0.3442383c-0.3642578-0.5537109-0.2099609-1.2978516,0.34375-1.6616211  c2.7119141-1.7827129,8.4042969,0.0908203,9.5195313,0.484375c0.625,0.2202148,0.9521484,0.9052734,0.7324219,1.5302734  c-0.1738281,0.4931641-0.6376953,0.8012695-1.1318359,0.8012695C64.5976563,35.6698265,64.4628906,35.6478539,64.3320313,35.6014671  z M55.9140625,47.7284203c0.4335938,0.4970703,0.3876953,1.2475586-0.1064453,1.6845703  c-0.1611328,0.1425781-1.4257813,1.2133789-3.0166016,1.2133789c-0.2880859,0-0.5859375-0.0351563-0.8896484-0.1166992  c-0.7357178-0.1974487-1.3686523-0.6355591-1.9014282-1.2940674c-0.5327148,0.6585083-1.1655884,1.0966187-1.9013062,1.2940674  c-0.3037109,0.081543-0.6020508,0.1166992-0.8896484,0.1166992c-1.5908203,0-2.8554688-1.0708008-3.0170898-1.2133789  c-0.496582-0.4389648-0.5429688-1.1972656-0.1040039-1.6938477c0.4355469-0.4956055,1.190918-0.543457,1.6884766-0.1088867  c0.2407227,0.2070313,1.0683594,0.7553711,1.706543,0.5800781c0.4871826-0.1347046,0.9453125-0.7410278,1.3041992-1.7071533  v-1.6697998c-0.1619263-0.1246948-0.3135986-0.2674561-0.4376831-0.4487915l-1.5114746-2.2086182  c-0.9083862-1.3273926,0.0421143-3.1295166,1.6505127-3.1295166h3.0229492c1.6083984,0,2.5588989,1.802124,1.6505127,3.1295166  l-1.5114746,2.2086182c-0.1240234,0.1812744-0.2756958,0.3240356-0.437561,0.4486694v1.6699219  c0.3588867,0.9661255,0.8165894,1.5724487,1.3046875,1.7071533c0.6337891,0.1762695,1.4667969-0.3740234,1.7060547-0.5805664  C54.7255859,47.1791039,55.4824219,47.2308617,55.9140625,47.7284203z"/><text x="0" y="115" fill="#000000" font-size="5px" font-weight="bold" font-family="'Helvetica Neue', Helvetica, Arial-Unicode, Arial, Sans-serif">Created by Llisole</text><text x="0" y="120" fill="#000000" font-size="5px" font-weight="bold" font-family="'Helvetica Neue', Helvetica, Arial-Unicode, Arial, Sans-serif">from the Noun Project</text></svg>