<svg xmlns="http://www.w3.org/2000/svg" xmlns:xlink="http://www.w3.org/1999/xlink" version="1.1" x="0px" y="0px" viewBox="0 0 100 125" enable-background="new 0 0 100 100" xml:space="preserve"><path d="M43.7883835,52.8765869c4.121582-0.7363281,8.3017578-0.7363281,12.4238281,0  c0.703125,0.1259766,1.4111328-0.0546875,1.9375-0.4941406c0.5205078-0.4365234,0.8183594-1.0898438,0.8173828-1.7910156V46.44104  c0-1.2734375-0.9785156-2.4453125-2.2275391-2.6679688c-4.4726563-0.7978516-9.0068359-0.7978516-13.4804688,0  c-1.269043,0.2285156-2.2260742,1.375-2.2260742,2.6679688v4.1503906c0,0.703125,0.2983398,1.3564453,0.8188477,1.7919922  c0.4160156,0.3476563,0.9443359,0.5332031,1.4946289,0.5332031C43.4929733,52.916626,43.6409225,52.9029541,43.7883835,52.8765869z   M44.0330124,46.6832275c3.9619141-0.6777344,7.9731445-0.6777344,11.934082,0v3.1103516  c-3.9628906-0.625-7.9702148-0.625-11.934082,0V46.6832275z M16.1482468,56.9605713  c2.5556641-0.421875,5.1484375-0.421875,7.7041016,0c0.6313477,0.1035156,1.2617188-0.0625,1.7270508-0.4570313  c0.4422607-0.3760986,0.6967163-0.9326172,0.7125854-1.5327148c0.0005493-0.0200195,0.0061646-0.0389404,0.0061646-0.059082  v-2.1552734c0.0007935-0.4898682-0.1624146-0.9562378-0.428772-1.3521118  c-0.369812-0.5494995-0.944519-0.9588013-1.6098022-1.0678101c-2.8286133-0.4667969-5.6953125-0.4667969-8.519043,0  c-1.1430664,0.1894531-2.0385742,1.2509766-2.0385742,2.4179688v2.15625  c-0.0004883,0.6240234,0.2617188,1.2041016,0.71875,1.5927734c0.3745117,0.3173828,0.8549805,0.4873047,1.3574219,0.4873047  C15.9006882,56.9908447,16.0242233,56.9810791,16.1482468,56.9605713z M23.7981491,52.7545166v1.6669922  c-2.5268555-0.3701172-5.0825195-0.3710938-7.6083984,0.0019531l-0.0410156-1.6201172  c1.3154297-0.2177734,2.6411133-0.3232422,3.9604492-0.3232422C21.3494186,52.4801025,22.5842819,52.5738525,23.7981491,52.7545166z   M93.8752975,58.7213135c-0.828125,0-1.5,0.671875-1.5,1.5v11.9208984h-5.8271484V64.572876  c0-1.647583-0.5439453-3.1608276-1.4552612-4.3515625c-0.7424927-0.9701538-1.7318726-1.7193604-2.8717651-2.1550293  c-0.7067261-0.2700806-1.4682617-0.4250488-2.2696533-0.4250488c-0.7803345,0-1.5256348,0.1549683-2.2194824,0.4250488  c-1.1191406,0.4356689-2.0968018,1.1848755-2.8330078,2.1550293c-0.9035645,1.1907349-1.4475098,2.7039795-1.4475098,4.3515625  v7.5693359h-5.8261719V60.2213135c0-0.828125-0.671875-1.5-1.5-1.5s-1.5,0.671875-1.5,1.5v11.9208984h-7.9675293V60.1014404  c0-3.0839233-2.2385864-5.5839844-5-5.5839844h-3.3155518c-2.7614136,0-5,2.500061-5,5.5839844v12.0407715h-7.9669189V60.2213135  c0-0.828125-0.6713867-1.5-1.5-1.5s-1.5,0.671875-1.5,1.5v11.9208984h-5.8271484V64.572876  c0-1.647583-0.5440063-3.1608276-1.4552612-4.3515625c-0.7424927-0.9701538-1.7316284-1.7193604-2.87146-2.1550293  c-0.706604-0.2700806-1.4681396-0.4250488-2.2694702-0.4250488c-0.7803345,0-1.5256348,0.1549683-2.2194824,0.4250488  c-1.1191406,0.4356689-2.0968018,1.1848755-2.8330078,2.1550293c-0.9035645,1.1907349-1.4475098,2.7039795-1.4475098,4.3515625  v7.5693359h-5.827148V60.2213135c0-0.828125-0.6713867-1.5-1.5-1.5s-1.5,0.671875-1.5,1.5v12.8457031  c0,1.1445313,1.0112305,2.0751953,2.2543945,2.0751953h86.2421875c1.2431641,0,2.2539063-0.9306641,2.2539063-2.0751953V60.2213135  C95.3752975,59.3931885,94.7034225,58.7213135,93.8752975,58.7213135z M23.5481491,72.1422119h-7.0961914V64.572876  c0-2.1679688,1.5703125-3.9316406,3.5961914-3.9316406c1.9296875,0,3.5,1.7636719,3.5,3.9316406V72.1422119z M83.5481491,72.1422119  h-7.0966797V64.572876c0-2.1679688,1.5703125-3.9316406,3.5966797-3.9316406c1.9296875,0,3.5,1.7636719,3.5,3.9316406V72.1422119z   M98.7835007,56.56604L81.3225632,41.1773682c-0.7548828-0.6650391-1.8876953-0.6650391-2.6445313,0l-4.7969971,4.2272339  L50.9915085,25.2320557c-0.5664063-0.4990234-1.4169922-0.4990234-1.9833984,0L26.1190109,45.4046021l-4.796936-4.2272339  c-0.7558594-0.6660156-1.8886719-0.6640625-2.6445313,0L1.2166064,56.56604  c-0.8286132,0.7294922-0.9086913,1.9931641-0.1782227,2.8222656c0.7304688,0.8271484,1.9941406,0.9091797,2.8227539,0.1777344  l16.1386719-14.2216797l16.1391602,14.2226563c0.3798828,0.3349609,0.8515625,0.4990234,1.3212891,0.4990234  c0.5546875,0,1.1064453-0.2294922,1.5014648-0.6777344c0.7304688-0.8291016,0.6503906-2.0927734-0.1782227-2.8232422  l-6.3607178-5.6052856l17.5770264-15.4894409L67.5766525,50.960022l-6.3605347,5.6050415  c-0.8291016,0.7304688-0.9082031,1.9941406-0.1787109,2.8232422c0.3955078,0.4482422,0.9472656,0.6777344,1.5019531,0.6777344  c0.4697266,0,0.9414063-0.1640625,1.3212891-0.4990234l16.1396484-14.2226563L96.1389694,59.56604  c0.828125,0.7324219,2.09375,0.6494141,2.8222656-0.1777344C99.6917038,58.5592041,99.6126022,57.2955322,98.7835007,56.56604z   M70.6021652,48.2939453L51.3220749,31.303833c-0.7558594-0.6660156-1.8886719-0.6660156-2.6445313,0L29.3982468,48.2944336  l-1.0108643-0.8908691l21.6124268-19.0465088l21.6123657,19.046814L70.6021652,48.2939453z M75.7776413,56.9908447  c0.1230469,0,0.2470703-0.0097656,0.3701172-0.0302734c2.5566406-0.421875,5.1484375-0.421875,7.7050781,0  c0.6308594,0.1054688,1.2617188-0.0625,1.7275391-0.4570313c0.4570313-0.3896484,0.71875-0.9697266,0.7177734-1.5917969v-2.1572266  c0-1.1689453-0.8964844-2.2304688-2.0390625-2.4179688c-2.8291016-0.4667969-5.6953125-0.4667969-8.5185547,0  c-0.6641846,0.1095581-1.2383423,0.519165-1.6081543,1.0682983c-0.2663574,0.3954468-0.4299316,0.861084-0.4299316,1.3496704  V54.90979c-0.000061,0.0206909,0.0057373,0.0401001,0.0062866,0.0606689  c0.0158691,0.6004639,0.2695923,1.1572876,0.7114868,1.5330811C74.7942429,56.8209229,75.2747116,56.9908447,75.7776413,56.9908447z   M83.7981491,52.7545166v1.6669922c-2.5273438-0.3701172-5.0810547-0.3710938-7.6083984,0.0019531l-0.0410156-1.6201172  c1.3154297-0.2177734,2.6416016-0.3232422,3.9599609-0.3232422C81.3499069,52.4801025,82.5842819,52.5738525,83.7981491,52.7545166z  "/><text x="0" y="115" fill="#000000" font-size="5px" font-weight="bold" font-family="'Helvetica Neue', Helvetica, Arial-Unicode, Arial, Sans-serif">Created by Llisole</text><text x="0" y="120" fill="#000000" font-size="5px" font-weight="bold" font-family="'Helvetica Neue', Helvetica, Arial-Unicode, Arial, Sans-serif">from the Noun Project</text></svg>