<svg xmlns="http://www.w3.org/2000/svg" xmlns:xlink="http://www.w3.org/1999/xlink" version="1.1" x="0px" y="0px" viewBox="0 0 100 125" enable-background="new 0 0 100 100" xml:space="preserve"><path d="M73.0796051,26.2127075c-0.5410767-1.9172974-1.8468018-3.5296021-3.635376-4.4561157  c0.0185547-0.1938477,0.0273438-0.3852539,0.0273438-0.5761719c0-3.8227539-2.9921875-6.9594727-6.7568398-7.1914063  c-1.4804688-3.5146484-4.9619141-5.8798828-8.8447266-5.8798828c-2.1601563,0-4.2583008,0.7421875-5.9433594,2.0722656  c-1.6958008-1.3300781-3.8056641-2.0722656-5.9736328-2.0722656c-5.3417969,0-9.6875,4.3461914-9.6875,9.6879883  c0,0.0654297,0.0009766,0.1308594,0.0024414,0.1967773c-0.985899,0.4735107-1.8561382,1.114502-2.6165142,1.8594971  c-2.3024902-2.2967529-5.9798584-2.7593994-8.8097534-0.9122314c-1.5742188,1.0258789-2.6547852,2.6040039-3.0424805,4.4428711  c-0.3876953,1.8393555-0.0356445,3.7192383,0.9907227,5.2939453c0.5018311,0.7696533,1.1303711,1.4077148,1.8397217,1.9066772  c-1.7194214,1.8822632-2.8156128,4.2037964-2.6322021,7.0464478c0.125,1.9213867,0.2070313,4.0424805,0.2436523,6.3041992  c0.0493164,2.9428711,1.6708984,5.3686523,4.0351563,6.0361328c2.0161133,0.5668945,4.0527344-0.3061523,5.3144531-2.2866211  l0.5776367-0.90625c0.4282227,0.9604492,0.9243164,1.8911133,1.4863281,2.7861328  c-0.0073242,0.1367188-0.0126953,0.2744141-0.0126953,0.4130859c0,5.7667847,1.9967041,11.0303955,5.2696514,15.0023804  c-9.6049786,6.0817871-16.1226788,17.7683105-16.1226788,31.1626587c0,0.828125,0.6713867,1.5,1.5,1.5s1.5-0.671875,1.5-1.5  v-0.000061c0-12.572937,6.1912231-23.5,15.2318096-28.9431763c3.5293579,3.218689,8.0592651,5.1571045,12.9942627,5.1571045  c4.9350586,0,9.4649048-1.9384155,12.9941406-5.1571655c9.0407143,5.4431763,15.2319374,16.3702393,15.2319374,28.9432373v0.000061  c0,0.828125,0.671875,1.5,1.5,1.5s1.5-0.671875,1.5-1.5c0-13.3944702-6.5178223-25.0809937-16.1229248-31.1627808  c3.2727661-3.9719849,5.2694092-9.2355347,5.2694092-15.0022583c0-0.1391602-0.0058594-0.2763672-0.0126953-0.4135742  c0.5615234-0.8955078,1.0576172-1.8261719,1.4853516-2.7866211l0.578125,0.9067383  c1.2617188,1.9814453,3.3007813,2.8554688,5.3154297,2.2871094c2.3642578-0.6679688,3.984375-3.09375,4.0332031-6.0351563  c0.0390625-2.2866211,0.1220703-4.4077148,0.2451172-6.3056641C82.3975983,31.9705811,77.7011261,28.3710327,73.0796051,26.2127075z   M79.0379791,37.4367676c-0.1259766,1.9443359-0.2099609,4.1137695-0.2509766,6.4492188  c-0.0302734,1.847168-0.9794922,2.9526367-1.8486328,3.1982422c-0.7197266,0.2055664-1.4228516-0.1538086-1.9697266-1.012207  l-4.0009766-6.2729492l-0.9169922,3.2001953c-0.5410156,1.890625-1.3662109,3.6865234-2.4521484,5.3369141l-0.2617188,0.3974609  l0.015625,0.4755859c0.0039063,0.1240234,0.0107422,0.2475586,0.0185547,0.3706055  c0.0078125,0.1318359,0.0166016,0.2636719,0.0166016,0.3979492c0,5.2479248-1.8867188,10.0079346-4.9345741,13.5009766  c-0.3443604,0.3947144-0.7067261,0.7680054-1.079895,1.1290283c-0.3977051,0.3847046-0.8115234,0.7470703-1.239563,1.0908813  c-2.8532715,2.2918091-6.3417969,3.65802-10.1185303,3.65802s-7.2653198-1.3662109-10.1186523-3.657959  c-0.4281006-0.343811-0.84198-0.7062378-1.2397461-1.0910034c-0.3731079-0.3609009-0.7354126-0.7342529-1.0797729-1.1289063  c-3.0479736-3.493042-4.9348755-8.2531128-4.9348755-13.5010376c0-0.1342773,0.0087891-0.2661133,0.0166016-0.3979492  c0.0073242-0.1230469,0.0146484-0.246582,0.0185547-0.3706055l0.015625-0.4760742l-0.262207-0.3974609  c-1.0869122-1.6503906-1.9125957-3.4458008-2.4531231-5.3359375l-0.9165039-3.203125l-4.0004883,6.2763672  c-0.5454102,0.855957-1.2446289,1.2163086-1.96875,1.0112305c-0.8696289-0.2456055-1.8198242-1.3510742-1.8505859-3.1982422  c-0.0380859-2.3100586-0.1220703-4.4794922-0.2495117-6.4487305c-0.1471558-2.2780762,0.9730835-4.1448975,2.6554565-5.6546631  c0.3469849,0.052063,0.6965332,0.0872803,1.048645,0.0872803c1.0112305,0,2.0292969-0.222229,2.9837646-0.6722412  c1.6047974,3.2861328,4.9713726,5.5609131,8.8677959,5.5609131c3.1518555,0,6.0615234-1.4990234,7.8999023-3.9536133  c1.4233398,1.2695313,3.269043,1.987793,5.2412109,1.987793c1.3208008,0,2.6171875-0.3330078,3.7666016-0.9550781  c1.5292969,1.6225586,3.6591797,2.5576172,5.9355469,2.5576172c1.5449219,0,3.0664063-0.4458008,4.3691406-1.269043  c0.7441444,0.2519531,1.5175819,0.3789063,2.3085976,0.3789063c3.5415039,0,6.4972534-2.539917,7.1499023-5.8933105  C76.4594879,31.362854,79.2659454,33.9083252,79.0379791,37.4367676z M21.3031139,27.0397949  c-0.5888672-0.9033203-0.7905273-1.9819336-0.5683594-3.0371094c0.222168-1.0546875,0.8422852-1.9599609,1.7451172-2.5483398  l0.0004883-0.0004883c0.6787109-0.4423828,1.4418945-0.6538086,2.1977539-0.6538086  c1.1934204,0,2.3623657,0.5323486,3.147583,1.5099487c0.0831909,0.1035767,0.1660767,0.2075806,0.2401123,0.321106  c0.3028564,0.4647217,0.4970093,0.9692993,0.5896606,1.4837646c0.081543,0.453125,0.0708618,0.9119263-0.0015259,1.3599854  c-0.0760498,0.4712524-0.2376099,0.9224854-0.4741821,1.3418579c-0.1384888,0.2454834-0.3015747,0.4761963-0.4923706,0.690979  c-0.2333374,0.2626953-0.4906006,0.5084839-0.7988281,0.7093506c-0.0338745,0.0220947-0.071106,0.0335693-0.1054077,0.0545044  c-0.5032959,0.3074951-1.0473022,0.4860229-1.6005249,0.5540161c-0.7458496,0.0916138-1.4989624-0.0213013-2.1785889-0.3322144  C22.3334484,28.1865234,21.7348156,27.7020874,21.3031139,27.0397949z M34.3397331,20.3825684  c0.684082-0.2319336,1.1054688-0.918457,1.0029297-1.6333008c-0.0527344-0.3666992-0.0771484-0.6694336-0.0771484-0.9521484  c0-3.6879883,3-6.6879883,6.6875-6.6879883c1.8652344,0,3.5991211,0.7558594,4.8813477,2.1289063  c0.2836914,0.3037109,0.6806641,0.4760742,1.0961914,0.4760742c0.0009766,0,0.0024414,0,0.003418,0  c0.4165039-0.0009766,0.8139648-0.175293,1.097168-0.480957c1.2680664-1.3696289,2.9863281-2.1240234,4.8388672-2.1240234  c2.9492188,0,5.5615234,1.9858398,6.3525391,4.8291016c0.1972656,0.7055664,0.8740234,1.1748047,1.6015625,1.0893555  l0.2373047-0.0292969c0.0683594-0.0092773,0.1347656-0.0229492,0.2050781-0.0229492  c2.3183632,0,4.2050819,1.8862305,4.2050819,4.2050781c0,0.3261719-0.0546875,0.6767578-0.1708984,1.1030273  c-0.2084351,0.7608643,0.2103882,1.5438843,0.946228,1.8049316c0.022522,0.0079956,0.0423584,0.0200806,0.0654907,0.0270996  c1.229126,0.3720703,2.1917114,1.2883301,2.6826782,2.4278564c0.2248535,0.5218506,0.3602905,1.0859985,0.3602905,1.6741943  c0,0.0222168-0.0061646,0.0427246-0.0065308,0.0648193c-0.0355835,2.3337402-1.9385376,4.2227783-4.2805786,4.2227783  c-0.6416016,0-1.265625-0.144043-1.8554688-0.4282227c-0.5195351-0.2509766-1.1376991-0.1806641-1.588871,0.1801758  c-0.9296875,0.7446289-2.0478516,1.1381836-3.2333984,1.1381836c-1.7666016,0-3.3945313-0.8920898-4.3544922-2.3857422  c-0.2324219-0.3613281-0.6074219-0.6054688-1.0322266-0.6713867c-0.4238281-0.0668945-0.8564453,0.0532227-1.1865234,0.3276367  c-0.8769531,0.7265625-1.9882813,1.1269531-3.1289063,1.1269531c-1.7172852,0-3.28125-0.8803711-4.1835938-2.3549805  c-0.2915039-0.4775391-0.8300781-0.7495117-1.3833008-0.7138672c-0.5581055,0.0390625-1.0483398,0.3852539-1.2714844,0.8984375  c-1.0927734,2.5126953-3.5668945,4.1362305-6.3027344,4.1362305c-2.9384766,0-5.4447002-1.8566284-6.4258404-4.4557495  c0.3861084-0.46875,0.7061157-0.9871216,0.9587402-1.5421753c0.2127686-0.4675293,0.3810425-0.9589233,0.489563-1.4737549  c0.0200806-0.0951538,0.0297852-0.1906128,0.0458984-0.2859497c0.09021-0.5337524,0.1203003-1.0685425,0.088501-1.5977173  c-0.0396118-0.6592407-0.1737671-1.3068237-0.3971558-1.9296265C32.0960197,21.5379639,33.1230583,20.7955933,34.3397331,20.3825684  z M41.6066399,44.4388428c-1.5117798,0-2.7373657-1.2255859-2.7373657-2.7373657  c0-1.5118408,1.2255859-2.7373657,2.7373657-2.7373657c1.5118408,0,2.7373657,1.2255249,2.7373657,2.7373657  C44.3440056,43.2132568,43.1184807,44.4388428,41.6066399,44.4388428z M61.1603508,41.7014771  c0,1.5117798-1.2255249,2.7373657-2.7373657,2.7373657c-1.5117798,0-2.7373657-1.2255859-2.7373657-2.7373657  c0-1.5118408,1.2255859-2.7373657,2.7373657-2.7373657C59.9348259,38.9641113,61.1603508,40.1896362,61.1603508,41.7014771z   M57.3231316,62.4904785c0.1365356,0.1925659,0.1862793,0.4116211,0.1973267,0.6312866  c0.0199585,0.3963623-0.135376,0.7946167-0.4834595,1.0415649c-0.1442261,0.1021729-0.2826538,0.177124-0.4244995,0.2682495  c-1.1696167,0.7513428-2.2642822,1.1497192-3.2649536,1.1497192c-0.546875,0-1.0673828-0.1132813-1.5595703-0.3388672  c-0.765625-0.3518066-1.3388672-0.9355469-1.7732544-1.5918579c-0.4344482,0.656189-1.0076904,1.2398682-1.7731323,1.5918579  c-0.4921875,0.2255859-1.0126953,0.3388672-1.5600586,0.3388672c-1.0005493,0-2.0951538-0.3983154-3.2649536-1.1494751  c-0.1420288-0.0911865-0.2805786-0.1662598-0.4249878-0.2684937c-0.3477173-0.2468872-0.5029297-0.6450806-0.4829102-1.0414429  c0.0111084-0.2197266,0.0610352-0.4387817,0.1977539-0.6314087c0.3828125-0.5400391,1.1318359-0.6660156,1.6728516-0.2861328  c0.1596069,0.1130371,0.3335571,0.2252197,0.5123901,0.3334961c0.7716675,0.4672852,1.677124,0.8283691,2.3474731,0.5239258  c0.3671875-0.1688232,0.6657104-0.5319214,0.9088135-0.9654541c0.0419922-0.0749512,0.0826416-0.1494141,0.1211548-0.2283936  c-1.0301514-0.1842041-1.9487915-0.5257568-2.6804199-0.980957c-1.0963745-0.6820679-1.774292-1.6152954-1.774292-2.645874  c0-2.0883789,2.776001-3.7813721,6.2004395-3.7813721c3.4243774,0,6.2003784,1.6929932,6.2003784,3.7813721  c0,1.0305786-0.6779175,1.9637451-1.774231,2.645813c-0.7329712,0.4559937-1.6534424,0.7978516-2.6856689,0.9818115  c0.0384521,0.0796509,0.0830688,0.1516724,0.1254272,0.2275391c0.239624,0.4291382,0.5359497,0.7944336,0.9121094,0.9664917  c0.6738281,0.3084106,1.5769653-0.0564575,2.3463745-0.5246582c0.1784058-0.1085815,0.3518677-0.2208862,0.5110474-0.3337402  C56.1883659,61.8234863,56.9383659,61.9494629,57.3231316,62.4904785z M52.3612175,13.9680176  c-0.1523438-0.6450195,0.2480469-1.2910156,0.8925781-1.4428711c2.0058594-0.4731445,4.1005859,0.4594727,5.0947266,2.265625  c0.3203125,0.5805664,0.1083984,1.3105469-0.4716797,1.6303711c-0.1835938,0.1010742-0.3818359,0.1489258-0.578125,0.1489258  c-0.4228516,0-0.8330078-0.2241211-1.0517578-0.6210938c-0.4775391-0.8666992-1.4873047-1.3154297-2.4423828-1.0878906  C53.1561394,15.0119629,52.5125847,14.6130371,52.3612175,13.9680176z M75.1024323,16.861084  c3.9990234,0,7.2519531-3.253418,7.2519531-7.2519531s-3.2529297-7.2519531-7.2519531-7.2519531  s-7.2519531,3.253418-7.2519531,7.2519531S71.1034088,16.861084,75.1024323,16.861084z M79.3543854,9.6091309  c0,2.3447266-1.9072266,4.2519531-4.2519531,4.2519531s-4.2519531-1.9072266-4.2519531-4.2519531  s1.9072266-4.2519531,4.2519531-4.2519531S79.3543854,7.2644043,79.3543854,9.6091309z M74.2020416,7.4104004  c0-0.4970703,0.4033203-0.8999023,0.9003906-0.8999023c1.7080078,0,3.0986328,1.3901367,3.0986328,3.0986328  c0,0.4970703-0.4033203,0.8999023-0.9003906,0.8999023s-0.9003906-0.402832-0.9003906-0.8999023  c0-0.7163086-0.5820313-1.2988281-1.2978516-1.2988281C74.6053619,8.3103027,74.2020416,7.9074707,74.2020416,7.4104004z   M23.4032116,26.744873c-0.1518555,0.0991211-0.3222656,0.1459961-0.4907227,0.1459961  c-0.2944336,0-0.5825195-0.1435547-0.7548828-0.4082031c-0.9082031-1.3935547-0.5136719-3.265625,0.8793945-4.1738281  c0.4160156-0.2734375,0.9746094-0.1538086,1.2456055,0.262207c0.2714844,0.4165039,0.1538086,0.9741211-0.262207,1.2456055  c-0.5620117,0.3662109-0.7211914,1.1210938-0.3549805,1.6826172C23.936903,25.9157715,23.8192272,26.4733887,23.4032116,26.744873z"/><text x="0" y="115" fill="#000000" font-size="5px" font-weight="bold" font-family="'Helvetica Neue', Helvetica, Arial-Unicode, Arial, Sans-serif">Created by Llisole</text><text x="0" y="120" fill="#000000" font-size="5px" font-weight="bold" font-family="'Helvetica Neue', Helvetica, Arial-Unicode, Arial, Sans-serif">from the Noun Project</text></svg>