<svg xmlns="http://www.w3.org/2000/svg" xmlns:xlink="http://www.w3.org/1999/xlink" version="1.1" x="0px" y="0px" viewBox="0 0 100 125" enable-background="new 0 0 100 100" xml:space="preserve"><path d="M98.6735764,47.5686035l-8.9619141-8.9624023c-0.5859375-0.5859375-1.5351563-0.5859375-2.1210938,0  c-0.5859375,0.5854492-0.5859375,1.5351563,0,2.1210938l3.9508057,3.9510498l-1.6577148,1.6577148l-5.3673096-5.3670654  c-0.5859375-0.5859375-1.5351563-0.5859375-2.1210938,0s-0.5859375,1.5356445,0,2.1210938l1.0585938,1.0585938  L66.8102951,60.7922363c-0.9746094,0.9746094-0.9746094,2.5605469,0,3.5351563l1.1375122,1.1375122l-1.8969727,1.8969727  c-0.15625,0.156189-0.15625,0.4094238,0,0.5656738l0.9439087,0.9439087l-4.8045654,4.8045654l1.4140625,1.4140625  l4.8045654-4.8045654l0.9436646,0.9437256c0.15625,0.156189,0.4094849,0.156189,0.5657349,0l1.8969727-1.8969727  l1.1376953,1.1376953c0.4873047,0.4873047,1.1269531,0.7314453,1.7675781,0.7314453s1.2802734-0.2441406,1.7675781-0.7314453  l16.6437988-16.6437988l1.0583496,1.0583496c0.2929688,0.293457,0.6767578,0.4389648,1.0605469,0.4389648  s0.7675781-0.1455078,1.0605469-0.4389648c0.5859375-0.5859375,0.5859375-1.5356445,0-2.1210938l-5.3670654-5.3668213  l1.6577148-1.6577148l3.9505615,3.9508057c0.2929688,0.2929688,0.6767578,0.4394531,1.0605469,0.4394531  s0.7675781-0.1464844,1.0605469-0.4394531C99.2595139,49.104248,99.2595139,48.154541,98.6735764,47.5686035z   M78.5416183,64.1741943l-5.4355469-5.4355469l12.4688721-12.4688721l5.4355469,5.4355469L78.5416183,64.1741943z   M69.2849045,62.5598145l1.2350464-1.2350464l5.4355469,5.4355469l-1.2350464,1.2350464L69.2849045,62.5598145z   M84.9763107,54.4250488l-1.4145508,1.4145508l1.4145508,1.4145508l-2.1210938,2.1210938l-1.4145508-1.4145508l-1.4145508,1.4145508  l-2.1210938-2.1210938l1.4145508-1.4145508l-1.4145508-1.4145508l2.1210938-2.1210938l1.4145508,1.4145508l1.4145508-1.4145508  L84.9763107,54.4250488z M48.0273972,56.3369751c3.2732544-3.9719849,5.2702026-9.2355347,5.2702026-15.0022583  c0-0.1396484-0.0058594-0.2773438-0.0126953-0.4145508c0.5615234-0.8959961,1.0566406-1.8256836,1.484375-2.7851563  l0.5791016,0.9072266c1.2626953,1.980957,3.296875,2.8579102,5.3164063,2.2856445  c2.3632813-0.668457,3.9833984-3.0942383,4.03125-6.0341797c0.0400391-2.3232422,0.1201172-4.3857422,0.2460938-6.3061523  c0.5429688-8.4379883-10.1630859-12.3017578-15.0976563-13.6279297c-4.1074219-2.8530273-9.949707-4.3598633-16.9204102-4.3598633  c-6.9702148,0-12.8125,1.5068359-16.9199219,4.3598633c-4.9345694,1.3261719-15.6416006,5.1899414-15.097167,13.628418  c0.125,1.921875,0.2070313,4.0429688,0.2436523,6.3046875c0.0493164,2.9423828,1.6708983,5.3681641,4.0351563,6.0356445  c2.0175781,0.5708008,4.0532227-0.3071289,5.3144531-2.2861328l0.5771484-0.9057617  c0.4282227,0.9599609,0.9248047,1.8901367,1.4868164,2.7856445c-0.0073242,0.1367188-0.0126953,0.2739258-0.0126953,0.4125977  c0,5.7666626,1.9968262,11.0302124,5.2698355,15.0021362C8.2163019,62.4185181,1.6984795,74.1051025,1.6984795,87.5002441  c0,0.828125,0.6713866,1.5,1.4999999,1.5s1.5000002-0.671875,1.5000002-1.5c0-0.0001221,0-0.0002441,0-0.0003662  c0.000061-12.5736694,6.1914063-23.5006104,15.2319326-28.9436035c3.5292358,3.2185669,8.05896,5.1568604,12.9936523,5.1568604  c4.9348755,0,9.4647827-1.9382935,12.9942017-5.1567383c9.0405884,5.4430542,15.2318115,16.3699341,15.2318726,28.9434814  c0,0.0001221,0,0.0002441,0,0.0003662c0,0.828125,0.671875,1.5,1.5,1.5s1.5-0.671875,1.5-1.5  C64.1501389,74.1052246,57.6324387,62.4187012,48.0273972,56.3369751z M43.0425339,57.055481  c-2.8533936,2.2915649-6.3419189,3.6576538-10.1184692,3.6576538c-3.7764282,0-7.2648315-1.3660889-10.118042-3.6577148  c-0.4280396-0.34375-0.8418579-0.7061157-1.239563-1.0908203c-0.37323-0.3610229-0.7355957-0.734436-1.0800171-1.1290894  c-3.0480347-3.493042-4.9349356-8.2529907-4.9349356-13.5007935c0-0.1342773,0.0087891-0.2661133,0.0166016-0.3979492  c0.0073242-0.1230469,0.0146484-0.246582,0.0185547-0.3706055l0.015625-0.4760742l-0.262207-0.3979492  c-1.0878906-1.6503906-1.9130859-3.4453125-2.453125-5.3349609l-0.9160156-3.2045898L7.969964,37.4299316  c-0.5454102,0.8569336-1.2441406,1.2163086-1.96875,1.0112305c-0.8696289-0.2456055-1.8198242-1.3510742-1.8505859-3.1977539  c-0.0380859-2.3095703-0.1220703-4.4794922-0.249512-6.4492188c-0.4111328-6.3637695,9.043457-9.534668,13.1274405-10.6025391  l0.2695313-0.0703125l0.2260742-0.1625977c3.6049805-2.5898438,8.9301758-3.9589844,15.3999023-3.9589844  c6.4702148,0,11.7954102,1.3691406,15.4003906,3.9589844l0.2260742,0.1625977l0.2695313,0.0703125  c4.0839844,1.0678711,13.5380859,4.2387695,13.1279297,10.6015625c-0.1279297,1.9677734-0.2109375,4.0771484-0.2519531,6.4501953  c-0.0292969,1.8466797-0.9785156,2.9521484-1.8476563,3.1977539c-0.7285156,0.2055664-1.4248047-0.1552734-1.9707031-1.0117188  l-4.0019531-6.2758789l-0.9160156,3.2036133c-0.5390625,1.887207-1.3642578,3.6826172-2.4521484,5.3359375l-0.2636719,0.3999023  l0.0361328,0.8354492c0.0087891,0.1347656,0.0175781,0.269043,0.0175781,0.40625  c0,5.2478638-1.887085,10.0079346-4.9353638,13.5009766c-0.3444214,0.3946533-0.7067871,0.7680054-1.0800171,1.1289673  C43.8845139,56.3493652,43.4705734,56.711731,43.0425339,57.055481z M24.5161057,35.7959595  c-1.5118408,0-2.7373657-1.2255859-2.7373657-2.7374268c0-1.5117798,1.2255249-2.7373657,2.7373657-2.7373657  c1.5117798,0,2.7373657,1.2255859,2.7373657,2.7373657C27.2534714,34.5703735,26.0278854,35.7959595,24.5161057,35.7959595z   M44.0698166,33.0585327c0,1.5118408-1.2255859,2.7374268-2.7373657,2.7374268  c-1.5118408,0-2.7373657-1.2255859-2.7373657-2.7374268c0-1.5117798,1.2255249-2.7373657,2.7373657-2.7373657  C42.8442307,30.321167,44.0698166,31.5467529,44.0698166,33.0585327z M40.2326584,53.8474121  c0.1365967,0.1928711,0.1865234,0.4118652,0.1977539,0.6315308c0.0202026,0.3965454-0.1350708,0.7947998-0.4829102,1.0418091  c-0.144165,0.1021118-0.2825317,0.177002-0.4243774,0.2681274c-1.1697388,0.7513428-2.2648315,1.1498413-3.265564,1.1498413  c-0.5473633,0-1.0678711-0.1132813-1.5595703-0.3388672c-0.7658081-0.3521118-1.3392334-0.9359741-1.7737427-1.5924072  c-0.4344482,0.6564331-1.0078125,1.2402954-1.7736206,1.5924072c-0.4916992,0.2255859-1.012207,0.3388672-1.5595703,0.3388672  c-1.0007935,0-2.09552-0.3984985-3.265564-1.1499023c-0.1418457-0.0910645-0.2802124-0.1659546-0.4243774-0.2680664  c-0.3479004-0.2470093-0.5030518-0.6452026-0.4828491-1.0418091c0.0112305-0.2196655,0.0610962-0.4387207,0.1976929-0.6315308  c0.3833008-0.5395508,1.1313477-0.6679688,1.6728516-0.2851563c0.1590576,0.1126709,0.3323975,0.2247314,0.510498,0.3330078  c0.7711182,0.468689,1.6758423,0.8324585,2.3493652,0.5234375c0.3670654-0.1687012,0.6655273-0.5317993,0.9085693-0.965332  c0.0419922-0.0749512,0.0825806-0.1494751,0.1210938-0.2284546c-1.0301514-0.1842041-1.9487305-0.5258179-2.6803589-0.9810181  c-1.0962524-0.6820679-1.7741089-1.6151733-1.7741089-2.6456909c0-2.0884399,2.776001-3.7814331,6.2003784-3.7814331  s6.2004395,1.6929932,6.2004395,3.7814331c0,1.0305176-0.6779785,1.963623-1.774231,2.6456909  c-0.7329712,0.4559937-1.6535034,0.7979736-2.685791,0.9819336c0.0383911,0.0797119,0.0829468,0.1516724,0.1252441,0.227478  c0.2396851,0.4293823,0.5361328,0.7947998,0.9124756,0.9668579c0.6722412,0.3065796,1.5766602-0.0565796,2.3471069-0.5248413  c0.1781006-0.1082764,0.3513184-0.2202759,0.5103149-0.3330688C39.1003342,53.1784668,39.8488693,53.3068848,40.2326584,53.8474121z  "/><text x="0" y="115" fill="#000000" font-size="5px" font-weight="bold" font-family="'Helvetica Neue', Helvetica, Arial-Unicode, Arial, Sans-serif">Created by Llisole</text><text x="0" y="120" fill="#000000" font-size="5px" font-weight="bold" font-family="'Helvetica Neue', Helvetica, Arial-Unicode, Arial, Sans-serif">from the Noun Project</text></svg>