<svg xmlns="http://www.w3.org/2000/svg" xmlns:xlink="http://www.w3.org/1999/xlink" version="1.1" x="0px" y="0px" viewBox="0 0 100 125" enable-background="new 0 0 100 100" xml:space="preserve"><path d="M39.7857323,20.8104343L5.5830956,51.2679558c-0.4765625,0.4238281-1.0703125,0.6328125-1.6616209,0.6328125  c-0.6884766,0-1.3740234-0.2822266-1.8681641-0.8378906c-0.9179689-1.0302734-0.8266603-2.6113281,0.2045898-3.5292969  l35.8652344-31.9379883c0.9482422-0.84375,2.3769531-0.84375,3.3251953,0l35.8652382,31.9379883  c1.03125,0.9179688,1.1230469,2.4990234,0.2050781,3.5292969c-0.9199219,1.0302734-2.5009766,1.1210938-3.5292969,0.2050781  L39.7857323,20.8104343z M2.6402247,45.5863152l37.1455078-33.078125l37.1459999,33.078125  c0.2851563,0.2548828,0.6416016,0.3798828,0.9960938,0.3798828c0.4130859,0,0.8251953-0.1699219,1.1210938-0.5029297  c0.5507813-0.6181641,0.4960938-1.5664063-0.1230469-2.1171875L40.7832909,9.3797712  c-0.5683594-0.5068359-1.4267578-0.5068359-1.9951172,0L0.6451074,43.3460808  c-0.6186523,0.5507813-0.6738281,1.4990234-0.1225586,2.1171875S2.0220606,46.138073,2.6402247,45.5863152z M51.0293846,34.9574089  c1.2587891,0.2382813,2.2099609,1.3847656,2.2119141,2.6669922v7.953125  c-0.0009766,0.7089844-0.3027344,1.3632813-0.8271484,1.7978516c-0.5302734,0.4375-1.2392578,0.6113281-1.9423828,0.4785156  c0,0,0,0-0.0009766,0c-7.0898438-1.3417969-14.2797852-1.3417969-21.3706055,0  c-0.1552734,0.0302734-0.3110352,0.0449219-0.465332,0.0449219c-0.5439453,0-1.0664063-0.1826172-1.4804688-0.5253906  c-0.5253906-0.4365234-0.8256836-1.0917969-0.8237305-1.7998047v-7.9462891c0-1.2841797,0.9511719-2.4316406,2.2124023-2.6699219  C36.0030174,33.5462761,43.5689354,33.5462761,51.0293846,34.9574089z M50.2412987,37.8617058  c-6.9399414-1.2841797-13.9716797-1.2861328-20.9106445,0v6.9013672c3.4711914-0.6103516,6.9638672-0.9150391,10.4555664-0.9150391  c3.4926758,0,6.9838867,0.3046875,10.4550781,0.9150391V37.8617058z M99.3760834,89.8831711  c-0.5078125,0.6992188-1.3466797,1.1171875-2.2431641,1.1171875H64.4756927c-0.8964844,0-1.7353516-0.4179688-2.2431641-1.1171875  c-0.4765625-0.6572266-0.6064453-1.4716797-0.3574219-2.2353516l1.1195068-3.4326172H11.8253031  c-1.7133789,0-3.1069336-1.2978516-3.1069336-2.8925781V50.2191048c0-0.828125,0.6713867-1.5,1.5-1.5s1.5,0.671875,1.5,1.5  v0.0001221v30.9793739c0.0258789,0.0087891,0.0620117,0.0166016,0.1069336,0.0166016h16.0917969V57.6194954  c0-3.5839844,2.9160156-6.5,6.4999981-6.5h10.7373047c3.5839844,0,6.5,2.9160156,6.5,6.5v23.5957069h12.3186646l1.4909058-4.5712891  c0.3324585-1.0230103,1.2793579-1.7225952,2.3896484-1.8033447V50.2192268v-0.0001221c0-0.828125,0.671875-1.5,1.5-1.5  s1.5,0.671875,1.5,1.5v23.6885414c2.5234985-1.9899292,6.0461426-3.5204468,9.9506836-3.5204468  c4.486084,0,8.4639282,2.0202637,11.003418,4.4373779h1.7363281c1.2011719,0,2.2470703,0.7314453,2.6015625,1.8193359  l3.5878906,11.0039063C99.9825287,88.4114914,99.8526459,89.2259445,99.3760834,89.8831711z M96.6934662,88.0003586  l-3.3193359-10.1757813H68.2344818l-3.3193359,10.1757813H96.6934662z"/><text x="0" y="115" fill="#000000" font-size="5px" font-weight="bold" font-family="'Helvetica Neue', Helvetica, Arial-Unicode, Arial, Sans-serif">Created by Llisole</text><text x="0" y="120" fill="#000000" font-size="5px" font-weight="bold" font-family="'Helvetica Neue', Helvetica, Arial-Unicode, Arial, Sans-serif">from the Noun Project</text></svg>